<svg width="21" height="21" viewBox="0 0 21 21" fill="none" xmlns="http://www.w3.org/2000/svg">
<mask id="mask0_73_897" style="mask-type:luminance" maskUnits="userSpaceOnUse" x="0" y="0" width="21" height="21">
<path d="M21 0H0V21H21V0Z" fill="white"/>
</mask>
<g mask="url(#mask0_73_897)">
<path d="M5.53338 7.66241C5.54806 5.66259 6.34114 3.74714 7.74443 2.32227H7.74185L2.32412 7.73999H2.32671C2.30654 7.75586 2.28753 7.77314 2.26981 7.79171C0.95223 9.10757 0.153396 10.8545 0.0199146 12.7118C-0.113567 14.5691 0.42726 16.4123 1.54314 17.9031L7.01517 12.431L7.07206 12.3767C6.05218 11.0186 5.51109 9.36073 5.53338 7.66241Z" fill="#0C8C5E"/>
<path d="M18.6882 13.2688C17.6513 14.285 16.3497 14.9894 14.9318 15.3017C13.514 15.614 12.0369 15.5216 10.669 15.0351C9.93963 14.7761 9.25417 14.4073 8.63634 13.9412L8.57945 13.9981L3.10742 19.4675C4.59878 20.5806 6.44095 21.1197 8.29711 20.9863C10.1533 20.8529 11.8994 20.0558 13.2162 18.7408L13.2705 18.6865L18.6882 13.2688Z" fill="#0C8C5E"/>
<path d="M21.0104 7.73998V3.873e-06H13.2704C12.2539 -0.00101453 11.2472 0.198818 10.3081 0.588023C9.36903 0.977229 8.51612 1.54814 7.79835 2.26795L7.74404 2.32226C6.79795 3.28273 6.12105 4.47511 5.78125 5.77977C6.39637 5.62048 7.02851 5.53626 7.66388 5.52893C9.36226 5.50894 11.0196 6.05079 12.3782 7.0702C13.5992 7.98076 14.5233 9.23241 15.0341 10.6674C15.5546 12.134 15.623 13.7231 15.2306 15.2291C16.5355 14.8899 17.728 14.2129 18.6881 13.2663L18.7424 13.2146C19.4625 12.4965 20.0336 11.6432 20.4228 10.7037C20.812 9.76414 21.0117 8.75694 21.0104 7.73998Z" fill="#18E299"/>
</g>
</svg>
