<svg width="17" height="17" viewBox="0 0 17 17" fill="none" xmlns="http://www.w3.org/2000/svg">
<path d="M7.48014 12.27V11.52C7.06593 11.52 6.73014 11.8558 6.73014 12.27H7.48014ZM10.4801 12.27H11.2302C11.2302 11.8558 10.8944 11.52 10.4801 11.52V12.27ZM10.4801 14.9367V15.6867C10.8944 15.6867 11.2302 15.3509 11.2302 14.9367H10.4801ZM7.48014 14.9367H6.73014C6.73014 15.3509 7.06593 15.6867 7.48014 15.6867V14.9367ZM2.81348 8.85335H2.06348V10.3533H2.81348V8.85335ZM7.48014 13.02H10.4801V11.52H7.48014V13.02ZM9.73014 12.27V14.9367H11.2302V12.27H9.73014ZM10.4801 14.1867H7.48014V15.6867H10.4801V14.1867ZM8.23014 14.9367V12.27H6.73014V14.9367H8.23014ZM15.1468 8.85335H2.81348V10.3533H15.1468V8.85335ZM3.48014 4.02002H14.4802V2.52002H3.48014V4.02002ZM14.3968 3.93669V11.6033H15.8968V3.93669H14.3968ZM14.4802 11.52H3.48014V13.02H14.4802V11.52ZM3.56348 11.6033V3.93669H2.06348V11.6033H3.56348ZM3.48014 11.52C3.52617 11.52 3.56348 11.5573 3.56348 11.6033H2.06348C2.06348 12.3857 2.69774 13.02 3.48014 13.02V11.52ZM14.3968 11.6033C14.3968 11.5573 14.4342 11.52 14.4802 11.52V13.02C15.2626 13.02 15.8968 12.3857 15.8968 11.6033H14.3968ZM14.4802 4.02002C14.4342 4.02002 14.3968 3.98271 14.3968 3.93669H15.8968C15.8968 3.15428 15.2626 2.52002 14.4802 2.52002V4.02002ZM3.48014 2.52002C2.69774 2.52002 2.06348 3.15428 2.06348 3.93669H3.56348C3.56348 3.98271 3.52617 4.02002 3.48014 4.02002V2.52002Z" fill="#4B5563"/>
</svg>
