<svg width="133" height="18" viewBox="0 0 133 18" fill="none" xmlns="http://www.w3.org/2000/svg">
<g clip-path="url(#clip0_73_480)">
<g clip-path="url(#clip1_73_480)">
<g clip-path="url(#clip2_73_480)">
<path d="M4.23481 0.580132V16.7023H0.826172V0.580132H4.23481ZM10.1154 0.580132V16.7023H6.70674V0.580132H10.1154ZM12.5873 16.7023V0.580132H23.4508V3.39048H15.9959V7.23209H22.892V10.0424H15.9959V13.8919H23.4823V16.7023H12.5873ZM29.1188 0.580132V16.7023H25.7653V0.580132H29.1188ZM36.9832 16.9385C35.7394 16.9385 34.6688 16.6866 33.7714 16.1827C32.8792 15.6737 32.1917 14.9546 31.7089 14.0257C31.2261 13.0916 30.9847 11.9868 30.9847 10.7116C30.9847 9.46777 31.2261 8.37617 31.7089 7.43677C32.1917 6.49736 32.8714 5.76524 33.7478 5.24044C34.6295 4.71563 35.6633 4.45322 36.8494 4.45322C37.647 4.45322 38.3897 4.5818 39.0772 4.83896C39.7699 5.09086 40.3735 5.47136 40.8878 5.98041C41.4073 6.48948 41.8115 7.12975 42.1001 7.90122C42.3888 8.66744 42.5331 9.56487 42.5331 10.5935V11.5146H32.3229V9.43628H39.3764C39.3764 8.95347 39.2714 8.52575 39.0615 8.15313C38.8516 7.78051 38.5603 7.48924 38.1876 7.27932C37.8203 7.06415 37.3925 6.95656 36.9045 6.95656C36.3955 6.95656 35.944 7.07464 35.5505 7.31081C35.1621 7.54172 34.8577 7.85399 34.6374 8.24759C34.4169 8.63595 34.304 9.06892 34.2988 9.5465V11.5224C34.2988 12.1207 34.409 12.6376 34.6295 13.0732C34.8551 13.5088 35.1726 13.8447 35.582 14.0808C35.9913 14.317 36.4768 14.4351 37.0383 14.4351C37.411 14.4351 37.752 14.3826 38.0617 14.2777C38.3713 14.1727 38.6363 14.0152 38.8568 13.8053C39.0772 13.5954 39.2452 13.3383 39.3606 13.0339L42.4622 13.2385C42.3047 13.9838 41.982 14.6345 41.494 15.1908C41.0111 15.7419 40.3866 16.1723 39.6204 16.4819C38.8594 16.7862 37.9804 16.9385 36.9832 16.9385ZM55.3372 4.61067L51.1098 16.7023H47.3312L43.1039 4.61067H46.6463L49.1576 13.2621H49.2835L51.7869 4.61067H55.3372ZM61.8416 16.9385C60.5978 16.9385 59.5272 16.6866 58.6298 16.1827C57.7377 15.6737 57.0501 14.9546 56.5673 14.0257C56.0844 13.0916 55.843 11.9868 55.843 10.7116C55.843 9.46777 56.0844 8.37617 56.5673 7.43677C57.0501 6.49736 57.7297 5.76524 58.6061 5.24044C59.4878 4.71563 60.5217 4.45322 61.7078 4.45322C62.5055 4.45322 63.2481 4.5818 63.9356 4.83896C64.6284 5.09086 65.2319 5.47136 65.7462 5.98041C66.2658 6.48948 66.6698 7.12975 66.9585 7.90122C67.2472 8.66744 67.3915 9.56487 67.3915 10.5935V11.5146H57.1813V9.43628H64.2348C64.2348 8.95347 64.1298 8.52575 63.9199 8.15313C63.7099 7.78051 63.4187 7.48924 63.0461 7.27932C62.6787 7.06415 62.2509 6.95656 61.7628 6.95656C61.2538 6.95656 60.8025 7.07464 60.4089 7.31081C60.0205 7.54172 59.7161 7.85399 59.4957 8.24759C59.2753 8.63595 59.1624 9.06892 59.1572 9.5465V11.5224C59.1572 12.1207 59.2674 12.6376 59.4878 13.0732C59.7135 13.5088 60.031 13.8447 60.4403 14.0808C60.8497 14.317 61.3352 14.4351 61.8968 14.4351C62.2693 14.4351 62.6105 14.3826 62.9201 14.2777C63.2298 14.1727 63.4948 14.0152 63.7151 13.8053C63.9356 13.5954 64.1036 13.3383 64.219 13.0339L67.3206 13.2385C67.1632 13.9838 66.8404 14.6345 66.3523 15.1908C65.8696 15.7419 65.245 16.1723 64.4788 16.4819C63.7178 16.7862 62.8388 16.9385 61.8416 16.9385ZM72.601 9.71181V16.7023H69.2474V4.61067H72.4435V6.74402H72.5852C72.8529 6.04077 73.3016 5.48448 73.9313 5.07512C74.5611 4.66052 75.3247 4.45322 76.2221 4.45322C77.0618 4.45322 77.7939 4.63691 78.4184 5.00427C79.043 5.37164 79.5284 5.89645 79.8748 6.5787C80.2212 7.2557 80.3944 8.06391 80.3944 9.00331V16.7023H77.0408V9.6016C77.046 8.86162 76.8571 8.28433 76.474 7.86974C76.0909 7.44989 75.5635 7.23996 74.8917 7.23996C74.4404 7.23996 74.0416 7.33705 73.6951 7.53123C73.3541 7.72541 73.0864 8.00881 72.8922 8.38142C72.7032 8.74879 72.6062 9.19226 72.601 9.71181ZM82.7679 16.7023V0.580132H86.1765V13.8919H93.0883V16.7023H82.7679ZM98.3981 16.9306C97.6266 16.9306 96.9391 16.7968 96.3356 16.5291C95.7321 16.2562 95.2545 15.8547 94.9028 15.3246C94.5565 14.7894 94.3833 14.1228 94.3833 13.3251C94.3833 12.6534 94.5066 12.0892 94.7533 11.6326C94.9999 11.176 95.3358 10.8086 95.7609 10.5305C96.186 10.2524 96.6689 10.0424 97.2094 9.90074C97.7552 9.75904 98.3272 9.65933 98.9255 9.6016C99.6288 9.52813 100.196 9.4599 100.626 9.39692C101.056 9.3287 101.369 9.22898 101.563 9.09778C101.757 8.96659 101.854 8.7724 101.854 8.51525V8.46801C101.854 7.96944 101.696 7.58371 101.382 7.31081C101.072 7.0379 100.631 6.90146 100.059 6.90146C99.4556 6.90146 98.9754 7.03528 98.6185 7.30293C98.2617 7.56534 98.0255 7.89598 97.91 8.29483L94.8084 8.04292C94.9658 7.30818 95.2754 6.67316 95.7373 6.13786C96.1991 5.59731 96.7948 5.18271 97.5243 4.89406C98.259 4.60017 99.1092 4.45322 100.075 4.45322C100.747 4.45322 101.39 4.53194 102.004 4.68938C102.623 4.84683 103.171 5.09086 103.649 5.4215C104.132 5.75212 104.513 6.17722 104.791 6.69678C105.069 7.2111 105.208 7.82775 105.208 8.54673V16.7023H102.027V15.0255H101.933C101.738 15.4033 101.479 15.7367 101.153 16.0252C100.828 16.3087 100.437 16.5317 99.9804 16.6944C99.5238 16.8518 98.9963 16.9306 98.3981 16.9306ZM99.3585 14.6162C99.8518 14.6162 100.287 14.519 100.665 14.3249C101.043 14.1254 101.339 13.8578 101.555 13.522C101.77 13.186 101.878 12.8055 101.878 12.3804V11.0973C101.773 11.1655 101.629 11.2285 101.444 11.2862C101.266 11.3387 101.064 11.3886 100.838 11.4358C100.613 11.4778 100.387 11.5172 100.161 11.5539C99.9357 11.5854 99.7311 11.6142 99.5474 11.6405C99.1538 11.6983 98.8101 11.7901 98.5162 11.916C98.2223 12.042 97.994 12.2126 97.8313 12.4277C97.6686 12.6376 97.5872 12.9001 97.5872 13.2149C97.5872 13.6715 97.7526 14.0205 98.0832 14.2619C98.419 14.4981 98.8442 14.6162 99.3585 14.6162ZM107.539 16.7023V0.580132H110.893V6.64167H110.996C111.143 6.3163 111.355 5.98566 111.633 5.64979C111.917 5.30866 112.284 5.02527 112.735 4.7996C113.192 4.56868 113.759 4.45322 114.436 4.45322C115.317 4.45322 116.131 4.68414 116.876 5.14597C117.621 5.60255 118.217 6.29268 118.663 7.21635C119.109 8.13476 119.332 9.28671 119.332 10.6722C119.332 12.021 119.114 13.1598 118.679 14.0887C118.249 15.0124 117.661 15.713 116.915 16.1906C116.176 16.6629 115.347 16.8991 114.428 16.8991C113.777 16.8991 113.223 16.7914 112.767 16.5763C112.316 16.3612 111.946 16.0908 111.657 15.7655C111.368 15.4349 111.148 15.1016 110.996 14.7657H110.845V16.7023H107.539ZM110.822 10.6565C110.822 11.3754 110.922 12.0026 111.122 12.5379C111.321 13.0732 111.609 13.4904 111.987 13.7896C112.365 14.0834 112.824 14.2304 113.365 14.2304C113.911 14.2304 114.372 14.0808 114.75 13.7817C115.128 13.4773 115.414 13.0575 115.609 12.5222C115.808 11.9816 115.908 11.3597 115.908 10.6565C115.908 9.95847 115.811 9.34445 115.617 8.81438C115.422 8.28433 115.136 7.86973 114.758 7.57059C114.38 7.27144 113.916 7.12188 113.365 7.12188C112.819 7.12188 112.357 7.2662 111.979 7.55484C111.607 7.84349 111.321 8.25284 111.122 8.78289C110.922 9.31296 110.822 9.93748 110.822 10.6565ZM131.297 8.05866L128.228 8.24759C128.175 7.98519 128.063 7.74902 127.89 7.5391C127.716 7.32393 127.488 7.15337 127.204 7.02741C126.926 6.89621 126.593 6.8306 126.205 6.8306C125.685 6.8306 125.247 6.94082 124.89 7.16124C124.533 7.37641 124.355 7.66506 124.355 8.02717C124.355 8.31582 124.47 8.55985 124.701 8.75928C124.932 8.95871 125.328 9.11878 125.889 9.23948L128.078 9.68032C129.254 9.92173 130.131 10.3101 130.708 10.8454C131.284 11.3807 131.574 12.084 131.574 12.9551C131.574 13.7476 131.34 14.443 130.873 15.0413C130.411 15.6395 129.776 16.1067 128.968 16.4425C128.165 16.7731 127.239 16.9385 126.189 16.9385C124.589 16.9385 123.313 16.6051 122.363 15.9387C121.419 15.2669 120.864 14.3538 120.702 13.1991L124 13.026C124.1 13.514 124.342 13.8866 124.725 14.1438C125.108 14.3957 125.598 14.5216 126.197 14.5216C126.784 14.5216 127.257 14.4089 127.614 14.1832C127.976 13.9522 128.16 13.6558 128.165 13.2936C128.16 12.9892 128.031 12.74 127.779 12.5458C127.527 12.3464 127.139 12.1941 126.614 12.0892L124.52 11.672C123.339 11.4358 122.46 11.0265 121.883 10.4439C121.311 9.86138 121.025 9.11878 121.025 8.2161C121.025 7.43939 121.234 6.77026 121.654 6.20871C122.08 5.64717 122.675 5.2142 123.442 4.9098C124.213 4.60542 125.116 4.45322 126.149 4.45322C127.677 4.45322 128.878 4.77598 129.755 5.4215C130.636 6.06701 131.151 6.94607 131.297 8.05866Z" fill="#36364A"/>
</g>
</g>
</g>
<defs>
<clipPath id="clip0_73_480">
<rect width="132" height="17.13" fill="white" transform="translate(0.389648 0.580017)"/>
</clipPath>
<clipPath id="clip1_73_480">
<rect width="132" height="17.13" fill="white" transform="translate(0.389648 0.580017)"/>
</clipPath>
<clipPath id="clip2_73_480">
<rect width="132" height="17.1298" fill="white" transform="translate(0.389648 0.580132)"/>
</clipPath>
</defs>
</svg>
