<svg width="17" height="17" viewBox="0 0 17 17" fill="none" xmlns="http://www.w3.org/2000/svg">
<g id="SVG">
<path id="Vector" fill-rule="evenodd" clip-rule="evenodd" d="M10.6436 10.0695L7.97693 12.1873V13.2303C7.97693 13.3568 8.11234 13.4372 8.2234 13.3766L10.2093 12.2934C10.4771 12.1474 10.6436 11.8668 10.6436 11.5618V10.0695ZM6.97693 12.153L4.67723 9.85334H3.59996C2.71439 9.85334 2.15169 8.90545 2.57575 8.12801L3.65896 6.14211C3.98023 5.55313 4.59754 5.18667 5.26844 5.18667H7.57826C9.31765 3.33566 11.26 2.07936 13.7712 1.88084C14.4448 1.82759 15.0027 2.38556 14.9495 3.05912C14.7509 5.57034 13.4946 7.51262 11.6436 9.252V11.5618C11.6436 12.2327 11.2772 12.8501 10.6882 13.1713L8.70226 14.2545C7.92482 14.6786 6.97693 14.1159 6.97693 13.2303V12.153ZM6.76078 6.18667H5.26844C4.96349 6.18667 4.68289 6.35324 4.53686 6.62096L3.45364 8.60686C3.39306 8.71793 3.47345 8.85334 3.59996 8.85334H4.64293L6.76078 6.18667Z" fill="#1F2937"/>
<path id="Vector_2" d="M1.64258 13.3163C1.64258 12.2834 2.47997 11.446 3.51295 11.446C4.54593 11.446 5.38332 12.2834 5.38332 13.3163C5.38332 14.3493 4.54593 15.1867 3.51295 15.1867H2.14258C1.86644 15.1867 1.64258 14.9629 1.64258 14.6867V13.3163Z" fill="#1F2937"/>
</g>
</svg>
