<svg width="73" height="23" viewBox="0 0 73 23" fill="none" xmlns="http://www.w3.org/2000/svg">
<g clip-path="url(#clip0_73_438)">
<g clip-path="url(#clip1_73_438)">
<g clip-path="url(#clip2_73_438)">
<mask id="mask0_73_438" style="mask-type:luminance" maskUnits="userSpaceOnUse" x="0" y="0" width="73" height="23">
<path d="M72.7577 0.0600128H0.802734V22.2H72.7577V0.0600128Z" fill="white"/>
</mask>
<g mask="url(#mask0_73_438)">
<mask id="mask1_73_438" style="mask-type:luminance" maskUnits="userSpaceOnUse" x="0" y="0" width="73" height="23">
<path d="M72.7577 0.0600128H0.802734V22.2H72.7577V0.0600128Z" fill="white"/>
</mask>
<g mask="url(#mask1_73_438)">
<path d="M7.09007 6.15166H20.4506C20.4506 2.79075 17.6126 0.102024 14.1633 0.0600128H0.802734C0.802734 3.42092 3.64077 6.15166 7.09007 6.15166Z" fill="#161616"/>
<path d="M0.802734 13.7975V22.1998H0.846396C4.60133 22.1998 7.65767 19.217 7.65767 15.604V13.8395H8.7929C12.2858 13.8395 15.1238 11.1087 15.1238 7.74786H7.13372C3.64077 7.74786 0.802734 10.4366 0.802734 13.7975Z" fill="#161616"/>
<path d="M35.1207 9.47047V20.7294H32.4572V10.2266H29.008V20.7294H26.3446V10.2266H24.8164V8.00005H26.3446V6.52962C26.3446 4.17699 27.8291 2.66459 30.1869 2.66459H34.946V4.89119H30.1432C29.4883 4.89119 29.008 5.47935 29.008 6.48762V8.00005H33.5925C34.4221 8.00005 35.1207 8.67224 35.1207 9.47047Z" fill="#161616"/>
<path d="M35.9941 8.00052H38.6139V9.84905H38.6575C39.3125 8.79875 40.535 7.66446 42.6744 7.66446C45.5561 7.66446 47.3463 9.63904 47.3463 12.7478V20.7721H44.6828V12.9159C44.6828 10.7313 43.5039 9.89104 41.9758 9.89104C40.142 9.89104 38.6575 11.1514 38.6575 13.546V20.73H35.9941V8.00052Z" fill="#161616"/>
<path d="M47.958 14.3438C47.958 10.3947 50.4468 7.62199 54.5946 7.62199C58.3932 7.62199 60.489 9.97462 60.7947 12.8734H58.044C57.9129 11.2349 56.7341 9.84858 54.5946 9.84858C52.1932 9.84858 50.7087 11.7391 50.7087 14.3859C50.7087 17.2006 52.4115 18.965 54.5946 18.965C56.6904 18.965 57.8256 17.4526 58.044 16.1923H60.7947C60.4454 18.797 58.3059 21.1917 54.5946 21.1917C50.6214 21.1076 47.958 18.4189 47.958 14.3438Z" fill="#161616"/>
<path d="M61.4053 2.20204H64.0686V7.9576C64.0686 8.54572 64.0686 8.96591 64.025 9.84811H64.0686C64.7236 8.7978 65.9461 7.66352 68.0855 7.66352C70.9672 7.66352 72.7574 9.63801 72.7574 12.7469V20.771H70.094V12.915C70.094 10.7304 68.9151 9.89009 67.3869 9.89009C65.5531 9.89009 64.0686 11.1505 64.0686 13.5451V20.729H61.4053V2.20204Z" fill="#161616"/>
</g>
</g>
</g>
</g>
</g>
<defs>
<clipPath id="clip0_73_438">
<rect width="72" height="22.14" fill="white" transform="translate(0.780273 0.0600128)"/>
</clipPath>
<clipPath id="clip1_73_438">
<rect width="72" height="22.14" fill="white" transform="translate(0.780273 0.0600128)"/>
</clipPath>
<clipPath id="clip2_73_438">
<rect width="71.955" height="22.14" fill="white" transform="translate(0.802734 0.0600128)"/>
</clipPath>
</defs>
</svg>
