<svg width="106" height="25" viewBox="0 0 106 25" fill="none" xmlns="http://www.w3.org/2000/svg">
<g clip-path="url(#clip0_73_459)">
<g clip-path="url(#clip1_73_459)">
<g clip-path="url(#clip2_73_459)">
<mask id="mask0_73_459" style="mask-type:luminance" maskUnits="userSpaceOnUse" x="0" y="0" width="106" height="25">
<path d="M105.255 0.140015H0.69043V24.14H105.255V0.140015Z" fill="white"/>
</mask>
<g mask="url(#mask0_73_459)">
<path d="M6.6399 13.261C6.34428 13.555 5.97474 13.702 5.5313 13.702H4.01622H1.83598C1.5034 13.702 1.24473 13.5918 1.02301 13.3712C0.838243 13.1507 0.69043 12.8934 0.69043 12.5627V6.9394V1.27937C0.69043 0.948591 0.838243 0.691317 1.02301 0.470796C1.24473 0.287029 1.54035 0.140015 1.83598 0.140015H5.23568H8.63538C8.96796 0.140015 9.22663 0.287029 9.44835 0.470796C9.67007 0.691317 9.78093 0.948591 9.78093 1.27937V5.68978V9.47538C9.78093 9.87967 9.63311 10.2839 9.33749 10.5412L8.00717 11.8643L6.6399 13.261Z" fill="#36364A"/>
<path d="M11.5558 6.05731C11.2601 5.76329 11.1123 5.39575 11.1123 4.99146V3.44782V1.27937C11.1123 0.948591 11.2601 0.691317 11.4449 0.470796C11.6666 0.287029 11.9623 0.140015 12.2579 0.140015H17.9117H23.6025C23.9351 0.140015 24.1938 0.287029 24.4155 0.470796C24.6372 0.691317 24.7481 0.948591 24.7481 1.27937V4.66068V8.042C24.7481 8.37278 24.6002 8.63006 24.4155 8.85058C24.1938 9.07111 23.9351 9.18137 23.6025 9.18137H19.1681H15.325C14.9185 9.18137 14.5121 9.03434 14.2164 8.74032L12.8861 7.41719L11.5558 6.05731Z" fill="#36364A"/>
<path d="M18.8343 11.0185C19.1299 10.7245 19.4993 10.5775 19.9428 10.5775H21.4579H23.6013C23.9338 10.5775 24.1924 10.7245 24.4141 10.9083C24.6359 11.1288 24.7467 11.3861 24.7467 11.7168V17.3401V22.9634C24.7467 23.2942 24.5989 23.5515 24.4141 23.772C24.1924 23.9925 23.9338 24.1028 23.6013 24.1028H20.2014H16.8017C16.4691 24.1028 16.2105 23.9557 15.9887 23.772C15.767 23.5515 15.6562 23.2942 15.6562 22.9634V18.553V14.7674C15.6562 14.3631 15.804 13.9588 16.0996 13.7015L17.4299 12.3784L18.8343 11.0185Z" fill="#36364A"/>
<path d="M13.8827 18.2231C14.1783 18.5171 14.3261 18.8846 14.3261 19.3257V20.8326V23.001C14.3261 23.3318 14.1783 23.5891 13.9935 23.8096C13.7718 24.0301 13.5131 24.1404 13.1806 24.1404H7.52678H1.83598C1.5034 24.1404 1.24473 23.9934 1.02301 23.8096C0.838243 23.5891 0.69043 23.2951 0.69043 23.001V19.6197V16.2384C0.69043 15.9076 0.838243 15.6503 1.02301 15.4298C1.24473 15.2093 1.5034 15.099 1.83598 15.099H6.27037H10.0765C10.483 15.099 10.8894 15.2461 11.1481 15.5401L12.4784 16.8632L13.8827 18.2231Z" fill="#36364A"/>
<path d="M62.9221 18.2222C62.7743 18.3324 62.6265 18.4427 62.5156 18.5162C62.4047 18.5897 62.3308 18.6265 62.2569 18.6632C62.183 18.7 62.1091 18.7367 62.0722 18.7367C61.9982 18.7367 61.9613 18.7367 61.8504 18.7367C61.5548 18.7367 61.3331 18.5897 61.2222 18.3324C61.1114 18.0384 61.0375 17.5239 61.0375 16.752V13.187C61.0375 12.5621 61.0005 12.0476 60.9266 11.7168C60.8527 11.386 60.7418 11.0553 60.5571 10.7612C59.9658 9.84241 58.8202 9.36462 57.1574 9.36462C55.938 9.36462 54.9402 9.58514 54.2012 9.98943C53.4621 10.3937 53.1295 10.9817 53.1295 11.7168C53.1295 12.0844 53.2404 12.4151 53.4621 12.6357C53.6838 12.8562 53.9795 13.0032 54.312 13.0032C54.6816 13.0032 55.0141 12.8929 55.2359 12.6724C55.4576 12.4519 55.6054 12.1579 55.6054 11.8271C55.6054 11.533 55.4945 11.2758 55.3098 11.092C55.162 10.945 55.0881 10.8715 55.0881 10.8715C55.0511 10.8347 55.0511 10.8347 55.0511 10.798C55.0511 10.7245 55.0881 10.651 55.1989 10.5407C55.3098 10.4672 55.4206 10.3937 55.5684 10.3202C55.7163 10.2467 55.901 10.2099 56.0858 10.1732C56.2706 10.1364 56.4923 10.1364 56.677 10.1364C57.6748 10.1364 58.3399 10.4304 58.6724 11.0185C58.7463 11.1655 58.8202 11.2758 58.8572 11.4228C58.8942 11.5331 58.9311 11.7168 58.9681 11.9006C59.005 12.0844 59.005 12.3049 59.042 12.5621C59.042 12.8562 59.0789 13.187 59.0789 13.5545L57.0466 13.922L56.2336 14.069C55.8271 14.1425 55.4576 14.2161 55.1989 14.2896C54.9033 14.3631 54.6446 14.4366 54.4229 14.5101C54.2012 14.5836 54.0164 14.6938 53.8316 14.8041C53.6469 14.9144 53.4991 15.0246 53.3512 15.1349C52.8339 15.6127 52.5752 16.2742 52.5752 17.1196C52.5752 18.0384 52.8339 18.7735 53.3882 19.288C53.9055 19.8026 54.6446 20.0966 55.5684 20.0966C56.2336 20.0966 56.8618 19.9496 57.4161 19.6556C57.9703 19.3615 58.5246 18.8837 59.1159 18.2222C59.1898 18.5162 59.2637 18.7735 59.3006 18.9205C59.3746 19.0675 59.4485 19.2145 59.5593 19.3615C59.7071 19.5821 59.8919 19.7291 60.1136 19.8393C60.3353 19.9496 60.5571 20.0231 60.8157 20.0231C61.2222 20.0231 61.5918 19.9128 61.9613 19.7291C62.3308 19.5453 62.7743 19.1778 63.2547 18.7367L62.9221 18.2222ZM59.1159 14.1058V15.7964C59.1159 16.5315 59.005 17.1196 58.7833 17.4871C58.5616 17.8546 58.2659 18.1487 57.8595 18.3692C57.453 18.5897 57.0096 18.7 56.5662 18.7C55.9749 18.7 55.4945 18.5162 55.162 18.1487C54.7924 17.7811 54.6446 17.3033 54.6446 16.7153C54.6446 15.7597 55.0881 15.1349 55.938 14.8041C56.2336 14.6938 56.6401 14.5836 57.1205 14.4733C57.6008 14.3998 58.2659 14.2528 59.1159 14.1058Z" fill="#36364A"/>
<path d="M70.4574 18.3693C70.0879 18.5164 69.7553 18.6266 69.5336 18.6634C69.3118 18.7369 69.0901 18.7369 68.9053 18.7369C68.351 18.7369 67.9446 18.5899 67.6859 18.2591C67.4272 17.9283 67.2794 17.4505 67.2794 16.8257V10.6879H70.3096V9.98953H67.2794V5.94666H66.799L65.3948 7.3433V9.95279H62.9189V10.6511H65.3948V17.524C65.3948 18.2958 65.5795 18.9206 65.9491 19.2882C66.3186 19.6925 66.8729 19.8762 67.575 19.8762C68.0554 19.8762 68.5358 19.8027 69.0162 19.619C69.4966 19.472 70.0509 19.1779 70.6791 18.8104L70.4574 18.3693Z" fill="#36364A"/>
<path d="M83.3559 8.29869C83.7254 8.29869 84.0581 8.18843 84.3168 7.93115C84.5754 7.67388 84.6862 7.37985 84.6862 7.01232C84.6862 6.64478 84.5754 6.35075 84.3168 6.09348C84.0581 5.83621 83.7624 5.72595 83.3928 5.72595C83.0602 5.72595 82.7278 5.83621 82.4691 6.09348C82.2104 6.35075 82.0996 6.64478 82.0996 6.97556C82.0996 7.3431 82.2104 7.63713 82.4691 7.8944C82.6908 8.15167 83.0233 8.29869 83.3559 8.29869Z" fill="#36364A"/>
<path d="M104.16 17.2666C103.865 17.5974 103.569 17.8546 103.311 18.0752C103.052 18.2957 102.793 18.4427 102.535 18.5897C102.276 18.7 102.017 18.8102 101.721 18.847C101.426 18.8837 101.13 18.9205 100.761 18.9205C99.5419 18.9205 98.6181 18.5162 97.9899 17.7076C97.7312 17.3401 97.5464 16.9358 97.4356 16.458C97.3247 15.9802 97.2877 15.3554 97.2877 14.5468H105.011C104.974 13.8118 104.899 13.187 104.826 12.7459C104.714 12.2681 104.567 11.8638 104.345 11.4595C103.975 10.798 103.421 10.2834 102.682 9.91592C101.943 9.54838 101.13 9.36462 100.207 9.36462C99.431 9.36462 98.7289 9.47488 98.1007 9.73215C97.4725 9.98943 96.9552 10.3202 96.5117 10.7612C96.0683 11.2023 95.7357 11.7536 95.514 12.4151C95.2923 13.0767 95.1445 13.8118 95.1445 14.5836C95.1445 15.3922 95.2553 16.1272 95.514 16.7888C95.7357 17.4504 96.1052 18.0017 96.5117 18.4795C96.9552 18.9572 97.4725 19.288 98.1007 19.5453C98.7289 19.8026 99.431 19.9128 100.207 19.9128C100.688 19.9128 101.093 19.8761 101.5 19.8026C101.906 19.7291 102.276 19.5821 102.609 19.3983C102.978 19.2145 103.311 18.994 103.644 18.7C103.975 18.4059 104.345 18.0752 104.678 17.6709L104.16 17.2666ZM100.096 10.0262C101.02 10.0262 101.685 10.3202 102.091 10.9082C102.497 11.4963 102.757 12.4519 102.867 13.8485H97.2508C97.3617 12.4886 97.6203 11.4963 98.0638 10.9082C98.5072 10.3202 99.2093 10.0262 100.096 10.0262Z" fill="#36364A"/>
<path d="M49.6174 18.81C49.4326 18.7365 49.2848 18.6262 49.174 18.4792C49.0631 18.3322 49.0261 18.1117 48.9892 17.8544C48.9522 17.5971 48.9522 17.2296 48.9522 16.7885V4.29236L45.146 5.21119V5.90951C45.5156 5.90951 45.8481 5.94626 46.0699 6.01977C46.3285 6.09327 46.5133 6.20354 46.6242 6.35055C46.772 6.49756 46.8459 6.71808 46.9198 7.01211C46.9567 7.30614 46.9937 7.67367 46.9937 8.11471V16.7885C46.9937 17.2296 46.9937 17.5604 46.9567 17.8544C46.9198 18.1117 46.8828 18.3322 46.772 18.4792C46.6611 18.6262 46.5133 18.7365 46.3285 18.81C46.1438 18.8835 45.8851 18.9202 45.5525 18.9938L45.0352 19.0305V19.6921H50.9477V19.0305L50.4304 18.9938C50.0608 18.957 49.8022 18.8835 49.6174 18.81Z" fill="#36364A"/>
<path d="M85.35 18.8113C85.1652 18.7378 85.0174 18.6275 84.9066 18.4805C84.7957 18.3335 84.7588 18.113 84.7218 17.8557C84.6848 17.5984 84.6848 17.2309 84.6848 16.7898V9.07166L80.8786 9.99049V10.6888C81.2482 10.6888 81.5808 10.7255 81.8025 10.799C82.0612 10.8725 82.2459 10.9828 82.3937 11.1298C82.5416 11.2768 82.6155 11.4973 82.6894 11.7914C82.7263 12.0854 82.7633 12.4529 82.7633 12.894V16.8266C82.7633 17.2676 82.7633 17.5984 82.7263 17.8924C82.6894 18.1497 82.6524 18.3702 82.5416 18.5172C82.4307 18.6643 82.2829 18.7745 82.0981 18.848C81.9133 18.9215 81.6547 18.9583 81.3221 19.0318L80.8047 19.0685V19.7301H86.7173V19.0685L86.1999 19.0318C85.7934 18.9583 85.5348 18.8848 85.35 18.8113Z" fill="#36364A"/>
<path d="M92.7046 18.81C92.5199 18.7365 92.372 18.6262 92.2612 18.4792C92.1503 18.3322 92.1134 18.1117 92.0764 17.8544C92.0395 17.5971 92.0395 17.2296 92.0395 16.7885V4.29236L88.2702 5.24795V5.94626C88.6397 5.94626 88.9723 5.98301 89.194 6.05652C89.4527 6.13003 89.6375 6.24029 89.7853 6.3873C89.9331 6.53432 90.007 6.75484 90.0809 7.04886C90.1179 7.34289 90.1548 7.71043 90.1548 8.15147V16.8253C90.1548 17.2663 90.1548 17.5971 90.1179 17.8911C90.0809 18.1484 90.044 18.3689 89.9331 18.516C89.8223 18.663 89.6744 18.7732 89.4897 18.8467C89.3049 18.9202 89.0462 18.957 88.7136 19.0305L88.1963 19.0673V19.7288H94.1089V19.0673L93.5915 19.0305C93.185 18.957 92.9263 18.8835 92.7046 18.81Z" fill="#36364A"/>
<path d="M79.2542 5.21155C78.8108 4.91753 78.2565 4.73376 77.5543 4.73376C76.5196 4.73376 75.6697 5.06454 75.0415 5.7261C74.4133 6.38766 74.1177 7.3065 74.1177 8.44586C74.1177 8.55612 74.1177 9.14417 74.1177 9.32794C74.1177 9.54846 74.1547 9.73223 74.1547 9.95275H72.1592V10.651H74.1547V16.7889C74.1547 17.2299 74.1546 17.5607 74.1177 17.8547C74.0807 18.112 74.0439 18.3325 73.933 18.4795C73.8221 18.6265 73.6743 18.7368 73.4896 18.8103C73.3048 18.8838 73.0461 18.9206 72.7135 18.9941L72.1962 19.0308V19.6924H78.2564V19.0308L77.5913 18.9941C77.2587 18.9206 77 18.8838 76.8153 18.8103C76.6305 18.7368 76.4827 18.6265 76.3718 18.4795C76.261 18.3325 76.224 18.112 76.1871 17.8547C76.1501 17.5974 76.1501 17.2299 76.1501 16.7889V10.6878H78.8847V9.9895H76.1501C76.1132 9.91599 75.8175 9.03391 75.6697 8.07832C75.5958 7.49027 75.5958 7.01247 75.7067 6.60818C75.8175 6.09364 76.0762 5.76285 76.4827 5.57909H76.5196C76.5196 5.57909 76.5196 5.57909 76.5566 5.57909C76.5566 5.57909 76.5566 5.57909 76.5935 5.57909H76.6305C76.8153 5.50558 77 5.46883 77.1848 5.46883C77.3696 5.46883 77.5543 5.50558 77.7391 5.57909C77.8869 5.65259 77.9978 5.7261 77.9978 5.79961C77.9978 5.83636 77.9608 5.90987 77.8869 5.98338C77.6652 6.2039 77.5174 6.49792 77.5174 6.8287C77.5174 7.15949 77.6282 7.41676 77.85 7.63728C78.0717 7.8578 78.3673 7.93131 78.6999 7.93131C79.0694 7.93131 79.402 7.78429 79.6607 7.52702C79.9194 7.26975 80.0302 6.90221 80.0302 6.49792C79.9194 5.90987 79.6976 5.50558 79.2542 5.21155Z" fill="#36364A"/>
<path d="M32.8037 5.2494V5.94771L33.5797 6.02122C34.1709 6.09472 34.5774 6.24174 34.7622 6.46226C34.8361 6.53576 34.873 6.60927 34.91 6.68278C34.947 6.75628 34.9839 6.82979 34.9839 6.9768C34.9839 7.08707 35.0209 7.23408 35.0209 7.41785C35.0209 7.60161 35.0209 7.8589 35.0209 8.15292V16.7899C35.0209 17.084 35.0209 17.3412 35.0209 17.525C35.0209 17.7088 34.9839 17.8558 34.9839 17.966C34.9839 18.0763 34.947 18.1866 34.91 18.2601C34.873 18.3336 34.8361 18.4071 34.7622 18.4438C34.5774 18.7011 34.1709 18.8481 33.5797 18.8849L32.8037 18.9584V19.6567H39.7138V18.9584L38.7161 18.8849C38.1249 18.8481 37.7554 18.7011 37.5337 18.4438C37.4598 18.3703 37.4228 18.3336 37.4228 18.2601C37.3859 18.1866 37.3859 18.0763 37.3489 17.966C37.312 17.8558 37.312 17.7088 37.312 17.525C37.312 17.3412 37.312 17.1207 37.312 16.7899V13.4454H39.1965C39.4182 13.4454 39.603 13.4821 39.7508 13.5189C39.9356 13.5556 40.1203 13.6291 40.2681 13.7394C40.416 13.8497 40.5268 13.9967 40.6377 14.2172C40.7485 14.401 40.8594 14.6582 40.9333 14.9523L41.1181 15.5403H41.968V10.4316H41.1181L40.9703 11.0196C40.8594 11.3504 40.7485 11.6077 40.6746 11.7915C40.5638 12.012 40.4529 12.159 40.3051 12.2693C40.1573 12.3795 40.0095 12.4898 39.8247 12.5265C39.7138 12.5633 39.603 12.5633 39.4182 12.6H37.275V6.16823H39.6399C40.3421 6.16823 40.9333 6.20498 41.3768 6.27849C41.8202 6.352 42.1897 6.49901 42.4484 6.71953C42.7071 6.94005 42.8918 7.23408 42.9657 7.60161C43.0766 7.96915 43.1136 8.4837 43.1505 9.07175H44.0004V5.2494H32.8037Z" fill="#36364A"/>
</g>
</g>
</g>
</g>
<defs>
<clipPath id="clip0_73_459">
<rect width="105" height="24" fill="white" transform="translate(0.69043 0.140015)"/>
</clipPath>
<clipPath id="clip1_73_459">
<rect width="105" height="24" fill="white" transform="translate(0.69043 0.140015)"/>
</clipPath>
<clipPath id="clip2_73_459">
<rect width="105" height="24" fill="white" transform="translate(0.69043 0.140015)"/>
</clipPath>
</defs>
</svg>
