<svg width="18" height="19" viewBox="0 0 18 19" fill="none" xmlns="http://www.w3.org/2000/svg">
<g clip-path="url(#clip0_73_725)">
<path fill-rule="evenodd" clip-rule="evenodd" d="M8.69754 1.24365C3.89883 1.24365 0.0195312 5.15155 0.0195312 9.98615C0.0195312 13.8507 2.50512 17.1219 5.95331 18.2798C6.38442 18.3668 6.54234 18.0917 6.54234 17.8602C6.54234 17.6576 6.52812 16.9628 6.52812 16.239C4.11412 16.7601 3.61141 15.1968 3.61141 15.1968C3.22347 14.1836 2.64865 13.9231 2.64865 13.9231C1.85855 13.3876 2.7062 13.3876 2.7062 13.3876C3.58264 13.4455 4.04253 14.285 4.04253 14.285C4.81825 15.6166 6.06823 15.2403 6.57112 15.0086C6.64288 14.4442 6.87291 14.0534 7.11715 13.8363C5.1918 13.6336 3.16609 12.881 3.16609 9.52288C3.16609 8.56758 3.5107 7.786 4.05674 7.17815C3.97059 6.96108 3.6688 6.06351 4.14307 4.86218C4.14307 4.86218 4.8758 4.63055 6.52794 5.75958C7.2353 5.56821 7.96476 5.47086 8.69754 5.47004C9.43027 5.47004 10.1772 5.57147 10.867 5.75958C12.5193 4.63055 13.252 4.86218 13.252 4.86218C13.7263 6.06351 13.4243 6.96108 13.3382 7.17815C13.8986 7.786 14.229 8.56758 14.229 9.52288C14.229 12.881 12.2032 13.619 10.2635 13.8363C10.5797 14.1113 10.8526 14.6322 10.8526 15.4574C10.8526 16.6298 10.8384 17.5707 10.8384 17.86C10.8384 18.0917 10.9965 18.3668 11.4274 18.2799C14.8756 17.1218 17.3612 13.8507 17.3612 9.98615C17.3754 5.15155 13.4819 1.24365 8.69754 1.24365Z" fill="#6B7280"/>
</g>
<defs>
<clipPath id="clip0_73_725">
<rect width="18" height="18" fill="white" transform="translate(0 0.77002)"/>
</clipPath>
</defs>
</svg>
