<svg width="107" height="28" viewBox="0 0 107 28" fill="none" xmlns="http://www.w3.org/2000/svg">
<g clip-path="url(#clip0_73_508)">
<g clip-path="url(#clip1_73_508)">
<g clip-path="url(#clip2_73_508)">
<path d="M49.1944 9.8496V12.0739C48.2338 10.5532 46.6101 9.57725 44.5746 9.57725C41.3498 9.57725 38.6738 12.1646 38.6738 15.5237C38.6738 18.8828 41.3498 21.4702 44.5746 21.4702C46.6101 21.4702 48.2338 20.4943 49.1944 18.9736V20.744C49.1944 23.0589 47.6164 24.5569 44.9633 24.5569C42.4933 24.5569 41.4412 23.6491 40.8694 22.4916L39.543 23.2406C40.4349 25.0108 42.3332 26.0095 44.9633 26.0095C47.9137 26.0095 50.7039 24.1938 50.7039 20.744V9.8496H49.1944ZM44.6889 20.0176C42.1502 20.0176 40.1833 18.0431 40.1833 15.5237C40.1833 13.0044 42.1502 11.0299 44.6889 11.0299C47.2275 11.0299 49.1944 13.0044 49.1944 15.5237C49.1944 18.0431 47.2275 20.0176 44.6889 20.0176ZM59.2288 21.4702C62.568 21.4702 65.2438 18.8828 65.2438 15.5237C65.2438 12.1646 62.568 9.57725 59.2288 9.57725C55.8897 9.57725 53.2138 12.1646 53.2138 15.5237C53.2138 18.8828 55.8897 21.4702 59.2288 21.4702ZM59.2288 20.0176C56.6901 20.0176 54.7233 18.0431 54.7233 15.5237C54.7233 13.0044 56.6901 11.0299 59.2288 11.0299C61.7675 11.0299 63.7343 13.0044 63.7343 15.5237C63.7343 18.0431 61.7675 20.0176 59.2288 20.0176ZM73.0987 21.4702C76.4378 21.4702 79.1138 18.8828 79.1138 15.5237C79.1138 12.1646 76.4378 9.57725 73.0987 9.57725C69.7596 9.57725 67.0837 12.1646 67.0837 15.5237C67.0837 18.8828 69.7596 21.4702 73.0987 21.4702ZM73.0987 20.0176C70.5601 20.0176 68.5932 18.0431 68.5932 15.5237C68.5932 13.0044 70.5601 11.0299 73.0987 11.0299C75.6374 11.0299 77.6043 13.0044 77.6043 15.5237C77.6043 18.0431 75.6374 20.0176 73.0987 20.0176ZM91.474 5.3103V12.0739C90.5134 10.5532 88.8896 9.57725 86.8541 9.57725C83.6293 9.57725 80.9537 12.1646 80.9537 15.5237C80.9537 18.8828 83.6293 21.4702 86.8541 21.4702C88.8896 21.4702 90.5134 20.4943 91.474 18.9736V21.1978H92.9834V5.3103H91.474ZM86.9684 20.0176C84.4298 20.0176 82.4631 18.0431 82.4631 15.5237C82.4631 13.0044 84.4298 11.0299 86.9684 11.0299C89.5071 11.0299 91.474 13.0044 91.474 15.5237C91.474 18.0431 89.5071 20.0176 86.9684 20.0176ZM104.413 9.8496L100.708 19.3594L96.4084 9.8496H94.8074L99.9305 21.266L99.6332 21.9695C99.0156 23.4448 97.9864 24.4888 96.4999 24.33V25.7372C98.5583 25.896 100.251 24.4208 101.119 22.2419L106.014 9.8496H104.413Z" fill="#36364A"/>
<path d="M17.0288 0.975878C17.0288 0.586047 16.7129 0.27002 16.323 0.27002C15.9331 0.27002 15.6172 0.586047 15.6172 0.975878V5.21106C15.6172 5.60083 15.9331 5.91686 16.323 5.91686C16.7129 5.91686 17.0288 5.60083 17.0288 5.21106V0.975878Z" fill="#36364A"/>
<path d="M6.04288 13.0259C6.24024 12.6882 6.12311 12.2565 5.78134 12.0617L2.06812 9.94425C1.72632 9.74938 1.28928 9.86507 1.09195 10.2025C0.894621 10.5402 1.01172 10.9719 1.35351 11.1667L5.06673 13.2842C5.4085 13.4791 5.84552 13.3635 6.04288 13.0259Z" fill="#36364A"/>
<path d="M25.7071 3.56045C25.9019 3.21861 25.7864 2.78166 25.4487 2.58422C25.1111 2.38696 24.6795 2.50405 24.4845 2.84589L22.3671 6.55901C22.1723 6.90085 22.2879 7.33793 22.6255 7.53523C22.9631 7.73254 23.3948 7.6154 23.5897 7.27371L25.7071 3.56045Z" fill="#36364A"/>
<path d="M10.0209 7.53523C10.3586 7.33793 10.4742 6.90085 10.2794 6.559L8.16195 2.8459C7.96702 2.50406 7.53538 2.38695 7.19782 2.58423C6.8601 2.78167 6.74456 3.21861 6.93935 3.56045L9.05679 7.27371C9.25172 7.6154 9.68336 7.73254 10.0209 7.53523Z" fill="#36364A"/>
<path d="M31.293 11.1667C31.6348 10.9719 31.752 10.5402 31.5546 10.2025C31.3572 9.86507 30.9202 9.74938 30.5784 9.94425L26.8652 12.0617C26.5235 12.2565 26.4063 12.6882 26.6037 13.0259C26.8011 13.3635 27.238 13.4791 27.5798 13.2842L31.293 11.1667Z" fill="#36364A"/>
<path d="M22.924 21.4409V27.2711C22.924 27.7085 22.6306 27.9999 22.1906 27.9999H10.4569C10.0168 27.9999 9.72352 27.7085 9.72352 27.2711V21.4409H15.5904V27.9999H17.0572V21.4409H22.924ZM15.5904 16.3396H8.99026C8.55018 16.3396 8.25684 16.6311 8.25684 17.0684V19.2546C8.25684 19.6919 8.55018 19.9834 8.99026 19.9834H15.5904V16.3396ZM23.6572 16.3396H17.0572V19.9834H23.6572C24.0974 19.9834 24.3907 19.6919 24.3907 19.2546V17.0684C24.3907 16.6311 24.0974 16.3396 23.6572 16.3396ZM21.5306 15.538L21.6039 15.2464C21.8973 14.5176 21.824 13.6431 21.3839 12.9873C20.944 12.3313 20.1372 11.9669 19.3306 11.9669C18.3038 11.9669 17.4238 12.55 17.0572 13.4974L15.5904 17.0684H19.2573C20.2106 17.0684 21.1638 16.4852 21.5306 15.538ZM18.4505 14.0075C18.5971 13.6431 18.9639 13.4244 19.3306 13.4244C19.6239 13.4244 19.9173 13.5702 20.1372 13.8618C20.2839 14.1532 20.3573 14.4447 20.2106 14.7363L20.1372 15.0277C19.9905 15.3921 19.6239 15.6108 19.2573 15.6108H17.7905L18.4505 14.0075ZM15.5904 13.4974C15.2238 12.55 14.2704 11.9669 13.317 11.9669C12.5103 11.9669 11.7035 12.3313 11.2636 13.0601C10.8236 13.7159 10.7503 14.5176 11.0436 15.3193L11.1169 15.6108C11.4837 16.4852 12.437 17.0684 13.3904 17.0684H16.9837L15.5904 13.4974ZM14.1969 14.0075L14.8571 15.6108H13.3904C13.0237 15.6108 12.657 15.3921 12.5103 15.0277L12.3637 14.7363C12.2904 14.4447 12.2904 14.0805 12.5103 13.8618C12.657 13.5702 12.9504 13.4244 13.317 13.4244C13.6837 13.4244 14.0504 13.6431 14.1969 14.0075Z" fill="#36364A"/>
</g>
</g>
</g>
<defs>
<clipPath id="clip0_73_508">
<rect width="106" height="27.73" fill="white" transform="translate(0.980469 0.27002)"/>
</clipPath>
<clipPath id="clip1_73_508">
<rect width="106" height="27.73" fill="white" transform="translate(0.980469 0.27002)"/>
</clipPath>
<clipPath id="clip2_73_508">
<rect width="105.968" height="27.73" fill="white" transform="translate(0.996094 0.27002)"/>
</clipPath>
</defs>
</svg>
