<svg width="103" height="24" viewBox="0 0 103 24" fill="none" xmlns="http://www.w3.org/2000/svg">
<g clip-path="url(#clip0_73_895)">
<path d="M33.8895 18H30.7695V3.99995H34.5895L38.4095 14.26L42.2095 3.99995H46.0295V18H42.9095V9.35995L39.6895 18H37.1095L33.8895 9.35995V18ZM49.5858 6.33995C49.0791 6.33995 48.6458 6.16662 48.2858 5.81995C47.9391 5.45995 47.7658 5.01995 47.7658 4.49995C47.7658 3.99328 47.9391 3.56662 48.2858 3.21995C48.6458 2.87328 49.0791 2.69995 49.5858 2.69995C50.1058 2.69995 50.5391 2.87328 50.8858 3.21995C51.2325 3.56662 51.4058 3.99328 51.4058 4.49995C51.4058 5.01995 51.2325 5.45995 50.8858 5.81995C50.5391 6.16662 50.1058 6.33995 49.5858 6.33995ZM51.1258 18H48.0458V7.39995H51.1258V18ZM52.963 18V7.39995H55.443L55.703 8.89995C55.9963 8.33995 56.4496 7.88662 57.063 7.53995C57.6896 7.19328 58.3896 7.01995 59.163 7.01995C60.283 7.01995 61.1763 7.37995 61.843 8.09995C62.523 8.81995 62.863 9.78662 62.863 11V18H59.783V11.16C59.783 10.7067 59.6363 10.3467 59.343 10.08C59.0496 9.81328 58.6496 9.67995 58.143 9.67995C57.543 9.67995 57.043 9.85995 56.643 10.22C56.243 10.58 56.043 11.0467 56.043 11.62V18H52.963ZM69.2692 18C68.0026 18 67.0292 17.7067 66.3492 17.12C65.6826 16.5333 65.3492 15.68 65.3492 14.56V9.99995H63.6092V7.39995H65.3492V3.77995H68.4292V7.39995H71.0292V9.99995H68.4292V14.22C68.4292 14.6067 68.5292 14.9 68.7292 15.1C68.9292 15.3 69.2159 15.4 69.5892 15.4H70.8092V18H69.2692ZM75.3895 18H72.3095V2.99995H75.3895V18ZM78.7858 6.33995C78.2791 6.33995 77.8458 6.16662 77.4858 5.81995C77.1391 5.45995 76.9658 5.01995 76.9658 4.49995C76.9658 3.99328 77.1391 3.56662 77.4858 3.21995C77.8458 2.87328 78.2791 2.69995 78.7858 2.69995C79.3058 2.69995 79.7391 2.87328 80.0858 3.21995C80.4325 3.56662 80.6058 3.99328 80.6058 4.49995C80.6058 5.01995 80.4325 5.45995 80.0858 5.81995C79.7391 6.16662 79.3058 6.33995 78.7858 6.33995ZM80.3258 18H77.2458V7.39995H80.3258V18ZM83.343 18V9.99995H81.603V7.39995H83.343V6.23995C83.343 5.18662 83.663 4.38662 84.303 3.83995C84.943 3.27995 85.8696 2.99995 87.083 2.99995H89.343V5.59995H87.403C86.7496 5.59995 86.423 5.92662 86.423 6.57995V7.39995H89.143V9.99995H86.423V18H83.343ZM90.4595 22V19.4H92.5995C93.3195 19.4 93.7729 19.1467 93.9595 18.64L94.1995 18H93.7395L89.5395 7.39995H92.8395L95.4795 14.54L98.1195 7.39995H101.319L96.8395 19.42C96.5195 20.2866 96.0195 20.9333 95.3395 21.36C94.6595 21.7867 93.7462 22 92.5995 22H90.4595Z" fill="#0F4F57"/>
<mask id="mask0_73_895" style="mask-type:luminance" maskUnits="userSpaceOnUse" x="0" y="0" width="21" height="21">
<path d="M21 0H0V21H21V0Z" fill="white"/>
</mask>
<g mask="url(#mask0_73_895)">
<path d="M5.53338 7.66241C5.54806 5.66259 6.34114 3.74714 7.74443 2.32227H7.74185L2.32412 7.73999H2.32671C2.30654 7.75586 2.28753 7.77314 2.26981 7.79171C0.95223 9.10757 0.153396 10.8545 0.0199146 12.7118C-0.113567 14.5691 0.42726 16.4123 1.54314 17.9031L7.01517 12.431L7.07206 12.3767C6.05218 11.0186 5.51109 9.36073 5.53338 7.66241Z" fill="#0C8C5E"/>
<path d="M18.6882 13.2688C17.6513 14.285 16.3497 14.9894 14.9318 15.3017C13.514 15.614 12.0369 15.5216 10.669 15.0351C9.93963 14.7761 9.25417 14.4073 8.63634 13.9412L8.57945 13.9981L3.10742 19.4675C4.59878 20.5806 6.44095 21.1197 8.29711 20.9863C10.1533 20.8529 11.8994 20.0558 13.2162 18.7408L13.2705 18.6865L18.6882 13.2688Z" fill="#0C8C5E"/>
<path d="M21.0104 7.73998V3.873e-06H13.2704C12.2539 -0.00101453 11.2472 0.198818 10.3081 0.588023C9.36903 0.977229 8.51612 1.54814 7.79835 2.26795L7.74404 2.32226C6.79795 3.28273 6.12105 4.47511 5.78125 5.77977C6.39637 5.62048 7.02851 5.53626 7.66388 5.52893C9.36226 5.50894 11.0196 6.05079 12.3782 7.0702C13.5992 7.98076 14.5233 9.23241 15.0341 10.6674C15.5546 12.134 15.623 13.7231 15.2306 15.2291C16.5355 14.8899 17.728 14.2129 18.6881 13.2663L18.7424 13.2146C19.4625 12.4965 20.0336 11.6432 20.4228 10.7037C20.812 9.76414 21.0117 8.75694 21.0104 7.73998Z" fill="#18E299"/>
</g>
</g>
<defs>
<clipPath id="clip0_73_895">
<rect width="103" height="24" fill="white"/>
</clipPath>
</defs>
</svg>
