<svg width="131" height="21" viewBox="0 0 131 21" fill="none" xmlns="http://www.w3.org/2000/svg">
<g clip-path="url(#clip0_73_484)">
<g clip-path="url(#clip1_73_484)">
<g clip-path="url(#clip2_73_484)">
<path d="M26.1513 10.2147C26.5445 13.2773 26.9093 16.1528 27.2881 19.0252C27.333 19.3693 27.2612 19.4907 26.873 19.51C24.5352 19.6253 24.5366 19.6345 23.6915 17.5213C23.3397 16.642 22.9968 15.7592 22.622 14.8886C22.5395 14.7455 22.5091 14.5794 22.5357 14.4173C22.5623 14.2551 22.6443 14.1065 22.7683 13.9957C23.8742 12.7965 24.9512 11.5647 26.1513 10.2147Z" fill="#36364A"/>
<path d="M12.4105 12.7814C12.7453 14.4673 13.0756 16.0519 13.3665 17.6435C13.4562 18.1362 13.8601 18.7621 13.5145 19.0952C13.2166 19.3815 12.555 18.9765 12.0465 18.9949C10.6957 19.0448 10.0669 18.425 9.84747 17.1236C9.71866 16.3596 9.66166 15.8305 10.3066 15.2388C11.0593 14.4631 11.762 13.6424 12.4105 12.7814Z" fill="#36364A"/>
<path d="M16.2249 15.8564C16.2249 14.9096 16.2101 13.9628 16.2321 13.0164C16.2406 12.6447 16.1348 12.5193 15.7303 12.5062C12.9717 12.417 10.2138 12.3089 7.4564 12.1818C7.02331 12.1621 6.85232 12.2822 6.76031 12.7004C6.33486 14.6369 5.85195 16.5621 5.43636 18.5009C5.31967 19.0453 5.10695 19.246 4.52397 19.1842C3.8771 19.1187 3.2259 19.1041 2.57663 19.1404C2.08744 19.1645 1.9932 18.9651 2.00037 18.5491C2.04256 15.6412 2.10495 12.7332 2.07623 9.82618C2.07093 8.93162 2.3768 8.06181 2.94376 7.35921C4.46966 5.28807 5.93947 3.17968 7.4178 1.07655C7.49754 0.932535 7.62303 0.817726 7.77537 0.749419C7.9277 0.681112 8.09864 0.663001 8.26243 0.697817C13.7745 1.27378 19.2887 1.83179 24.805 2.37182C25.15 2.41221 25.4795 2.53523 25.7641 2.72994C29.0466 4.81335 32.3232 6.90422 35.6223 8.96221C36.116 9.26905 36.1295 9.44438 35.655 9.72185C35.5529 9.77572 35.4618 9.84731 35.3858 9.93312C34.4357 11.132 33.3213 11.0781 31.975 10.5468C30.3476 9.9064 28.6314 9.48164 26.9628 8.93723C26.804 8.87436 26.6318 8.85054 26.4614 8.86789C26.2909 8.88524 26.1274 8.94322 25.9853 9.03673C24.4504 9.96775 22.9085 10.8874 21.3596 11.7956C21.2201 11.8686 21.1009 11.9738 21.0125 12.1019C20.924 12.2301 20.8689 12.3775 20.852 12.5312C20.5122 14.53 20.1236 16.52 19.8112 18.5241C19.7215 19.0983 19.5119 19.2802 18.9276 19.2403C18.1855 19.1975 17.4415 19.1963 16.6993 19.2368C16.2591 19.2561 16.1463 19.1053 16.1607 18.6955C16.1895 17.7491 16.1697 16.8014 16.1697 15.8546L16.2249 15.8564Z" fill="#36364A"/>
<path d="M49.1916 10.1222C50.3022 8.48586 51.9076 8.01341 53.762 8.25775C54.7913 8.34075 55.7493 8.80485 56.4398 9.55507C57.1302 10.3053 57.5009 11.2849 57.4761 12.2933C57.5473 14.3773 57.4824 16.4658 57.5135 18.5518C57.5213 19.0866 57.2161 19.0536 56.8513 19.0587C56.4516 19.0622 56.1324 19.082 56.1433 18.5097C56.1776 16.7355 56.1604 14.9612 56.1516 13.1896C56.145 12.8256 56.1162 12.4623 56.0654 12.1017C55.7369 9.53924 53.433 9.11089 51.7057 9.67865C50.6157 10.0335 49.9286 11.1086 49.914 12.4768C49.8933 14.4065 49.8944 16.3364 49.9172 18.2664C49.9234 18.7941 49.8466 19.0774 49.1869 19.0774C48.5163 19.0774 48.4557 18.7662 48.4603 18.2542C48.4769 16.4293 48.4967 14.6044 48.4603 12.7795C48.4084 10.3407 46.6738 9.0161 44.3663 9.60717C43.8045 9.74676 43.3036 10.0593 42.9379 10.4985C42.5721 10.9377 42.3608 11.4803 42.3353 12.0459C42.1804 14.1259 42.1536 16.2131 42.255 18.2963C42.2637 19.1256 41.8356 19.0921 41.2688 19.0567C41.0233 19.042 40.8536 18.9801 40.8619 18.6983C40.9252 16.407 40.689 14.1071 40.9854 11.8244C41.2138 10.0649 42.1827 8.78849 44.005 8.37738C45.9524 7.93534 47.7487 8.21264 49.0307 9.92856C49.0711 9.98078 49.1205 10.0355 49.1916 10.1222Z" fill="#36364A"/>
<path d="M120.001 10.0689C120.691 9.26169 121.613 8.67404 122.647 8.38116C123.68 8.08828 124.78 8.10352 125.806 8.42492C128.435 9.11839 129.77 11.3215 129.562 14.4694C129.506 15.5049 129.133 16.5 128.492 17.3268C127.852 18.1536 126.972 18.7742 125.967 19.1088C124.922 19.4586 123.795 19.5037 122.724 19.2386C121.653 18.9735 120.684 18.4097 119.936 17.6159C119.057 16.6169 118.583 15.3384 118.602 14.0213C118.578 9.85242 118.596 5.68298 118.59 1.51406C118.59 1.0477 118.644 0.695891 119.261 0.682204C119.902 0.668011 120.01 0.997509 120.008 1.52014C119.994 4.3072 120.001 7.09425 120.001 10.0689ZM120.001 13.7871C119.923 17.2144 122.836 18.7995 125.757 17.7847C127.566 17.1566 128.551 15.0767 128.169 12.9182C127.885 11.3103 127.115 10.0724 125.402 9.62328C122.312 8.80663 119.996 10.6067 120.001 13.7871Z" fill="#36364A"/>
<path d="M113.672 10.0952C113.672 7.10133 113.676 4.29249 113.666 1.48413C113.666 1.00612 113.733 0.673066 114.352 0.68067C114.863 0.688781 115.063 0.860629 115.061 1.37464C115.044 5.62721 115.09 9.87976 115.03 14.1313C114.985 17.2965 112.635 19.4104 109.376 19.3612C106.299 19.3151 104.066 17.0456 104.051 13.9478C104.036 11.0584 105.414 9.00584 107.901 8.40463C110.043 7.88503 112.001 8.23632 113.672 10.0952ZM109.533 18.0671C112.06 18.0706 113.666 16.4125 113.672 13.7917C113.677 11.1004 112.093 9.44178 109.525 9.44837C107.002 9.45496 105.425 11.1101 105.418 13.7618C105.409 16.3785 107.018 18.0636 109.533 18.0671Z" fill="#36364A"/>
<path d="M88.0435 10.3077C88.0435 7.35746 88.0519 4.50248 88.0363 1.64751C88.0338 1.14667 88.1354 0.850126 88.7359 0.868882C89.2119 0.883583 89.3987 1.05543 89.3971 1.52788C89.3811 5.85394 89.4381 10.181 89.3566 14.505C89.3006 17.4847 86.9402 19.5626 83.8552 19.5484C83.1509 19.5671 82.4499 19.4491 81.7928 19.2011C81.1357 18.9532 80.5356 18.5802 80.0272 18.1039C79.5189 17.6276 79.1124 17.0575 78.8314 16.4265C78.5504 15.7956 78.4005 15.1164 78.3904 14.4285C78.2777 11.6587 79.4253 9.56814 81.6477 8.79103C84.031 7.95765 86.2187 8.27448 88.0435 10.3077ZM83.9184 18.2537C86.4155 18.2421 88.0705 16.5064 88.042 13.9353C88.0099 11.2602 86.3921 9.61174 83.8219 9.63455C81.3192 9.65687 79.7378 11.3505 79.7539 13.991C79.7699 16.5986 81.3981 18.2654 83.9184 18.2537Z" fill="#36364A"/>
<path d="M96.9662 19.3658C95.4792 19.3551 94.151 18.9912 93.2609 17.7254C93.0279 17.3944 92.7232 16.998 93.2558 16.6543C93.7057 16.3638 94.0056 16.5448 94.3265 16.9371C94.9207 17.5838 95.729 18.0056 96.6098 18.1286C97.4905 18.2515 98.3874 18.0679 99.1435 17.6098C99.3956 17.4602 99.5993 17.2438 99.7309 16.9858C99.8624 16.7278 99.9164 16.4387 99.8867 16.1519C99.8693 15.8759 99.7653 15.6118 99.5888 15.3955C99.4124 15.1792 99.1721 15.0212 98.9006 14.9429C97.8855 14.6145 96.8489 14.3533 95.7978 14.1612C95.3562 14.0593 94.924 13.9213 94.506 13.7486C94.1241 13.5888 93.7849 13.3454 93.5145 13.0373C93.2442 12.7292 93.0497 12.3646 92.9465 11.9715C92.8432 11.5785 92.8337 11.1675 92.9187 10.7703C93.0037 10.3731 93.181 10.0003 93.4369 9.68059C94.7738 7.83793 99.4413 7.50691 100.847 9.89755C101.029 10.2072 101.435 10.553 100.906 10.8966C100.455 11.1902 100.128 11.1131 99.7787 10.6346C98.8134 9.30242 96.2084 9.03375 94.9265 10.0805C94.6921 10.2361 94.5083 10.4538 94.3966 10.7081C94.2849 10.9623 94.2499 11.2425 94.2959 11.5155C94.3418 11.7885 94.4667 12.043 94.6559 12.249C94.845 12.455 95.0906 12.6038 95.3635 12.678C96.2183 12.9664 97.1224 13.1175 98.0053 13.3268C98.6321 13.4603 99.2371 13.6778 99.8031 13.9732C100.254 14.1938 100.634 14.5322 100.9 14.9508C101.166 15.3695 101.308 15.8519 101.31 16.3447C101.312 16.8374 101.175 17.3211 100.913 17.7421C100.651 18.1631 100.274 18.5049 99.8254 18.7296C98.9509 19.1956 97.9611 19.4158 96.9662 19.3658Z" fill="#36364A"/>
<path d="M75.9199 15.5853C75.9199 16.5236 75.8939 17.4609 75.9303 18.4002C75.9501 18.9071 75.7943 19.084 75.2556 19.0683C74.7641 19.0536 74.5289 18.9629 74.5361 18.4164C74.5662 16.6701 74.5617 14.9232 74.544 13.1769C74.516 10.5125 72.5291 8.99834 69.8728 9.59955C69.1583 9.74862 68.5176 10.1313 68.056 10.6843C67.5944 11.2373 67.3399 11.9276 67.3344 12.6411C67.2554 14.5167 67.2787 16.3923 67.2917 18.2679C67.2953 18.7951 67.2218 19.0683 66.5652 19.0759C65.8692 19.084 65.8531 18.7469 65.8697 18.2532C65.9377 16.2762 65.728 14.2906 65.9833 12.3192C66.3301 9.63909 68.2602 8.13202 71.188 8.204C71.7923 8.19272 72.393 8.29787 72.9556 8.51346C73.5182 8.72904 74.0317 9.05083 74.467 9.46042C74.9022 9.87001 75.2505 10.3594 75.492 10.9005C75.7335 11.4417 75.8634 12.024 75.8743 12.6142C75.9418 13.6002 75.8852 14.5912 75.8852 15.5837L75.9199 15.5853Z" fill="#36364A"/>
<path d="M62.3735 13.8149C62.3735 15.325 62.3528 16.8351 62.3849 18.3447C62.3963 18.8745 62.2578 19.062 61.6769 19.0686C61.0469 19.0757 60.9976 18.7944 61.0022 18.3082C61.0178 15.3407 61.0132 12.3727 61.0069 9.40471C61.0069 8.93226 60.9923 8.52114 61.6817 8.50593C62.3709 8.49072 62.387 8.87192 62.3823 9.36313C62.3646 10.8474 62.3735 12.3311 62.3735 13.8149Z" fill="#36364A"/>
<path d="M60.5264 5.2222C60.5308 4.92153 60.6554 4.63445 60.8737 4.42234C61.0919 4.21024 61.3864 4.08995 61.6943 4.0872C61.8535 4.08299 62.0119 4.11168 62.1591 4.1714C62.3062 4.23112 62.4388 4.32052 62.5481 4.43375C62.6574 4.54697 62.741 4.68147 62.7934 4.82844C62.8458 4.97541 62.8658 5.13152 62.8522 5.28658C62.8365 5.58305 62.7027 5.86179 62.4794 6.06316C62.2561 6.26454 61.9609 6.37257 61.6571 6.36416C61.3533 6.35575 61.0649 6.23156 60.8536 6.01815C60.6423 5.80475 60.5249 5.51906 60.5264 5.2222Z" fill="#36364A"/>
</g>
</g>
</g>
<defs>
<clipPath id="clip0_73_484">
<rect width="130" height="20" fill="white" transform="translate(0.589844 0.140015)"/>
</clipPath>
<clipPath id="clip1_73_484">
<rect width="130" height="20" fill="white" transform="translate(0.589844 0.140015)"/>
</clipPath>
<clipPath id="clip2_73_484">
<rect width="130" height="20" fill="white" transform="translate(0.589844 0.140015)"/>
</clipPath>
</defs>
</svg>
