<svg width="74" height="19" viewBox="0 0 74 19" fill="none" xmlns="http://www.w3.org/2000/svg">
<g clip-path="url(#clip0_73_498)">
<g clip-path="url(#clip1_73_498)">
<g clip-path="url(#clip2_73_498)">
<path d="M1.20117 17.015V1.26501H8.16425C9.13759 1.26501 10.0211 1.49001 10.8147 1.94001C11.6083 2.37501 12.2299 2.96751 12.6791 3.71751C13.1432 4.46751 13.3754 5.32251 13.3754 6.28251C13.3754 7.22751 13.1432 8.09001 12.6791 8.87001C12.2299 9.63501 11.6083 10.2425 10.8147 10.6925C10.0211 11.1425 9.13759 11.3675 8.16425 11.3675H4.45809V17.015H1.20117ZM10.1184 17.015L6.12025 9.90501L9.57933 9.34251L14.0268 17.0375L10.1184 17.015ZM4.45809 8.62251H8.00702C8.41133 8.62251 8.76322 8.53251 9.06271 8.35251C9.37717 8.15751 9.61676 7.89501 9.78148 7.56501C9.94619 7.22003 10.0286 6.83752 10.0286 6.41751C10.0286 5.96751 9.93122 5.57752 9.73656 5.24751C9.54189 4.91751 9.25737 4.66251 8.88302 4.48251C8.50866 4.28751 8.0744 4.19001 7.58025 4.19001H4.45809V8.62251Z" fill="#36364A"/>
<path d="M20.5559 17.2399C19.2681 17.2399 18.1375 16.9774 17.1641 16.4524C16.2058 15.9273 15.4571 15.2073 14.9179 14.2924C14.3939 13.3774 14.1318 12.3273 14.1318 11.1424C14.1318 10.2124 14.2816 9.3649 14.581 8.5999C14.8805 7.8349 15.2998 7.17491 15.8389 6.6199C16.3779 6.04991 17.0144 5.61491 17.7482 5.3149C18.4968 4.9999 19.3055 4.8424 20.174 4.8424C20.9827 4.8424 21.7313 4.99241 22.4202 5.2924C23.109 5.59241 23.7005 6.0124 24.1947 6.5524C24.7037 7.07741 25.0931 7.70741 25.3627 8.4424C25.6322 9.1624 25.7519 9.94241 25.722 10.7824L25.6996 11.7724H16.1534L15.6367 9.8149H23.0716L22.7122 10.2199V9.7249C22.6822 9.3199 22.5474 8.9599 22.3078 8.6449C22.0833 8.31491 21.7913 8.0599 21.4319 7.8799C21.0725 7.68491 20.6681 7.5874 20.2189 7.5874C19.5601 7.5874 18.9985 7.71491 18.5342 7.9699C18.085 8.22491 17.7407 8.5999 17.501 9.0949C17.2615 9.5899 17.1416 10.1899 17.1416 10.8949C17.1416 11.6149 17.2914 12.2373 17.591 12.7624C17.9054 13.2874 18.3396 13.6998 18.8937 13.9999C19.4627 14.2848 20.129 14.4274 20.8927 14.4274C21.4168 14.4274 21.8961 14.3449 22.3303 14.1799C22.7645 14.0148 23.2287 13.7299 23.723 13.3249L25.2503 15.4624C24.8161 15.8524 24.3368 16.1824 23.8128 16.4524C23.2887 16.7074 22.7496 16.9024 22.1955 17.0374C21.6415 17.1724 21.095 17.2399 20.5559 17.2399Z" fill="#36364A"/>
<path d="M30.9543 17.2401C29.8461 17.2401 28.8578 17.0601 27.9894 16.7001C27.1358 16.3251 26.447 15.8151 25.9229 15.1701L27.922 13.4601C28.3712 13.9551 28.8803 14.3151 29.4494 14.5401C30.0184 14.7501 30.5874 14.8551 31.1564 14.8551C31.381 14.8551 31.5832 14.8326 31.7629 14.7876C31.9575 14.7276 32.1223 14.6526 32.257 14.5626C32.3918 14.4576 32.4892 14.3376 32.549 14.2026C32.624 14.0526 32.6614 13.8951 32.6614 13.7301C32.6614 13.4001 32.5266 13.1451 32.257 12.9651C32.1073 12.8751 31.8752 12.7776 31.5607 12.6726C31.2463 12.5526 30.842 12.4251 30.3478 12.2901C29.5841 12.0951 28.9327 11.8701 28.3937 11.6151C27.8695 11.3451 27.4503 11.0451 27.1358 10.7151C26.8663 10.4001 26.6566 10.0626 26.5069 9.70261C26.3721 9.32761 26.3047 8.91511 26.3047 8.46511C26.3047 7.92511 26.4246 7.43761 26.6641 7.00261C26.9037 6.55261 27.2332 6.17011 27.6524 5.85511C28.0867 5.54011 28.5809 5.30011 29.1349 5.13511C29.6889 4.95511 30.2729 4.86511 30.8869 4.86511C31.5009 4.86511 32.0998 4.94011 32.6838 5.09011C33.2678 5.24012 33.8069 5.45761 34.301 5.74261C34.8101 6.01261 35.252 6.33511 35.6263 6.71011L33.9192 8.60011C33.6497 8.3451 33.3427 8.11261 32.9983 7.90261C32.6689 7.69262 32.3244 7.52761 31.965 7.40761C31.6057 7.28762 31.2837 7.22761 30.9992 7.22761C30.7446 7.22761 30.5126 7.25011 30.3029 7.29511C30.1083 7.34011 29.9435 7.41511 29.8087 7.52011C29.674 7.61011 29.5692 7.72261 29.4943 7.85761C29.4344 7.99261 29.4044 8.1426 29.4044 8.30761C29.4044 8.47261 29.4418 8.63011 29.5167 8.78011C29.6066 8.93012 29.7264 9.05761 29.8761 9.16261C30.0409 9.25261 30.2804 9.35762 30.5949 9.47761C30.9243 9.59761 31.3661 9.73261 31.9201 9.88261C32.6389 10.0776 33.2454 10.2951 33.7395 10.5351C34.2486 10.7751 34.6529 11.0526 34.9524 11.3676C35.207 11.6376 35.3941 11.9451 35.514 12.2901C35.6338 12.6351 35.6937 13.0176 35.6937 13.4376C35.6937 14.1726 35.484 14.8251 35.0647 15.3951C34.6604 15.9651 34.0989 16.4151 33.3801 16.7451C32.6614 17.0751 31.8527 17.2401 30.9543 17.2401Z" fill="#36364A"/>
<path d="M42.4816 17.2399C41.1938 17.2399 40.0633 16.9774 39.0899 16.4524C38.1316 15.9273 37.3829 15.2073 36.8438 14.2924C36.3196 13.3774 36.0576 12.3273 36.0576 11.1424C36.0576 10.2124 36.2073 9.3649 36.5069 8.5999C36.8064 7.8349 37.2256 7.17491 37.7647 6.6199C38.3038 6.04991 38.9402 5.61491 39.6739 5.3149C40.4227 4.9999 41.2313 4.8424 42.0998 4.8424C42.9084 4.8424 43.6572 4.99241 44.3459 5.2924C45.0347 5.59241 45.6262 6.0124 46.1204 6.5524C46.6295 7.07741 47.0189 7.70741 47.2884 8.4424C47.5579 9.1624 47.6778 9.94241 47.6478 10.7824L47.6253 11.7724H38.0792L37.5626 9.8149H44.9973L44.6379 10.2199V9.7249C44.608 9.3199 44.4732 8.9599 44.2336 8.6449C44.009 8.31491 43.717 8.0599 43.3576 7.8799C42.9982 7.68491 42.5939 7.5874 42.1447 7.5874C41.4858 7.5874 40.9243 7.71491 40.4601 7.9699C40.0109 8.22491 39.6664 8.5999 39.4269 9.0949C39.1873 9.5899 39.0675 10.1899 39.0675 10.8949C39.0675 11.6149 39.2172 12.2373 39.5167 12.7624C39.8312 13.2874 40.2655 13.6998 40.8195 13.9999C41.3885 14.2848 42.0549 14.4274 42.8186 14.4274C43.3427 14.4274 43.8218 14.3449 44.2561 14.1799C44.6904 14.0148 45.1546 13.7299 45.6487 13.3249L47.1761 15.4624C46.7418 15.8524 46.2627 16.1824 45.7386 16.4524C45.2144 16.7074 44.6753 16.9024 44.1213 17.0374C43.5673 17.1724 43.0207 17.2399 42.4816 17.2399Z" fill="#36364A"/>
<path d="M48.8818 17.0151V5.11261H51.9365L52.0264 7.54261L51.3975 7.81261C51.5622 7.27261 51.8542 6.78511 52.2735 6.35011C52.7077 5.90011 53.2244 5.54011 53.8233 5.27011C54.4223 5.00011 55.0513 4.86511 55.7101 4.86511C56.6085 4.86511 57.3573 5.04511 57.9562 5.40511C58.5702 5.76511 59.027 6.31261 59.3264 7.04761C59.6408 7.76761 59.7981 8.66012 59.7981 9.72511V17.0151H56.6085V9.97261C56.6085 9.43261 56.5337 8.98261 56.3839 8.62261C56.2342 8.26261 56.0021 8.00011 55.6876 7.83511C55.3882 7.6701 55.0138 7.59511 54.5645 7.61011C54.2051 7.61011 53.8682 7.67012 53.5538 7.79011C53.2543 7.8951 52.9922 8.05262 52.7676 8.26261C52.558 8.47261 52.3858 8.71261 52.251 8.98261C52.1313 9.25261 52.0713 9.54511 52.0713 9.86011V17.0151H50.499C50.1547 17.0151 49.8476 17.0151 49.5781 17.0151C49.3085 17.0151 49.0765 17.0151 48.8818 17.0151Z" fill="#36364A"/>
<path d="M66.381 17.2401C65.3329 17.2401 64.397 16.9776 63.5733 16.4526C62.7647 15.9126 62.1209 15.185 61.6416 14.2701C61.1775 13.34 60.9453 12.2676 60.9453 11.0526C60.9453 9.86761 61.1775 8.81011 61.6416 7.88011C62.1209 6.93511 62.7647 6.20011 63.5733 5.67511C64.397 5.13511 65.3329 4.86511 66.381 4.86511C66.9352 4.86511 67.4667 4.95511 67.9758 5.13511C68.4999 5.30011 68.9641 5.53261 69.3684 5.83261C69.7878 6.13261 70.1247 6.47011 70.3792 6.84511C70.6338 7.20511 70.7761 7.58011 70.806 7.97011L69.9973 8.12761V0.365112H73.2093V17.0151H70.177L70.0423 14.2701L70.6712 14.3376C70.6413 14.7125 70.5065 15.0725 70.2669 15.4176C70.0273 15.7626 69.7053 16.0776 69.301 16.3626C68.9118 16.6326 68.4625 16.85 67.9533 17.0151C67.4592 17.165 66.9352 17.2401 66.381 17.2401ZM67.0998 14.5851C67.6988 14.5851 68.2229 14.4351 68.6721 14.1351C69.1213 13.835 69.4733 13.4226 69.7278 12.8976C69.9824 12.3725 70.1096 11.7576 70.1096 11.0526C70.1096 10.3626 69.9824 9.75511 69.7278 9.23011C69.4733 8.70512 69.1213 8.29261 68.6721 7.99261C68.2229 7.69261 67.6988 7.54261 67.0998 7.54261C66.5009 7.54261 65.9767 7.69261 65.5275 7.99261C65.0933 8.29261 64.7489 8.70512 64.4943 9.23011C64.2547 9.75511 64.1349 10.3626 64.1349 11.0526C64.1349 11.7576 64.2547 12.3725 64.4943 12.8976C64.7489 13.4226 65.0933 13.835 65.5275 14.1351C65.9767 14.4351 66.5009 14.5851 67.0998 14.5851Z" fill="#36364A"/>
</g>
</g>
</g>
<defs>
<clipPath id="clip0_73_498">
<rect width="73" height="18" fill="white" transform="translate(0.280273 0.140015)"/>
</clipPath>
<clipPath id="clip1_73_498">
<rect width="73" height="18" fill="white" transform="translate(0.280273 0.140015)"/>
</clipPath>
<clipPath id="clip2_73_498">
<rect width="73" height="18" fill="white" transform="translate(0.280273 0.140015)"/>
</clipPath>
</defs>
</svg>
