<svg width="16" height="17" viewBox="0 0 16 17" fill="none" xmlns="http://www.w3.org/2000/svg">
<g clip-path="url(#clip0_73_728)">
<path d="M3.37306 10.8843C3.37306 11.8143 2.62207 12.5659 1.69288 12.5659C0.763684 12.5659 0.0126953 11.8143 0.0126953 10.8843C0.0126953 9.95427 0.763684 9.20264 1.69288 9.20264H3.37306V10.8843ZM4.21315 10.8843C4.21315 9.95427 4.96414 9.20264 5.89333 9.20264C6.82252 9.20264 7.5735 9.95427 7.5735 10.8843V15.0883C7.5735 16.0183 6.82252 16.7699 5.89333 16.7699C4.96414 16.7699 4.21315 16.0183 4.21315 15.0883V10.8843Z" fill="#6B7280"/>
<path d="M5.89336 4.13324C4.96417 4.13324 4.21318 3.38161 4.21318 2.45163C4.21318 1.52165 4.96417 0.77002 5.89336 0.77002C6.82255 0.77002 7.57353 1.52165 7.57353 2.45163V4.13324H5.89336ZM5.89336 4.98678C6.82255 4.98678 7.57353 5.73841 7.57353 6.66839C7.57353 7.59837 6.82255 8.35 5.89336 8.35H1.68018C0.750989 8.35 0 7.59837 0 6.66839C0 5.73841 0.750989 4.98678 1.68018 4.98678H5.89336Z" fill="#6B7280"/>
<path d="M12.6272 6.66839C12.6272 5.73841 13.3782 4.98678 14.3074 4.98678C15.2366 4.98678 15.9876 5.73841 15.9876 6.66839C15.9876 7.59837 15.2366 8.35 14.3074 8.35H12.6272V6.66839ZM11.7871 6.66839C11.7871 7.59837 11.0361 8.35 10.1069 8.35C9.17775 8.35 8.42676 7.59837 8.42676 6.66839V2.45163C8.42676 1.52165 9.17775 0.77002 10.1069 0.77002C11.0361 0.77002 11.7871 1.52165 11.7871 2.45163V6.66839Z" fill="#6B7280"/>
<path d="M10.1069 13.4067C11.0361 13.4067 11.7871 14.1583 11.7871 15.0883C11.7871 16.0183 11.0361 16.7699 10.1069 16.7699C9.17775 16.7699 8.42676 16.0183 8.42676 15.0883V13.4067H10.1069ZM10.1069 12.5659C9.17775 12.5659 8.42676 11.8143 8.42676 10.8843C8.42676 9.95427 9.17775 9.20264 10.1069 9.20264H14.3201C15.2493 9.20264 16.0003 9.95427 16.0003 10.8843C16.0003 11.8143 15.2493 12.5659 14.3201 12.5659H10.1069Z" fill="#6B7280"/>
</g>
<defs>
<clipPath id="clip0_73_728">
<rect width="16" height="16" fill="white" transform="translate(0 0.77002)"/>
</clipPath>
</defs>
</svg>
