<svg width="101" height="29" viewBox="0 0 101 29" fill="none" xmlns="http://www.w3.org/2000/svg">
<g clip-path="url(#clip0_73_527)">
<g clip-path="url(#clip1_73_527)">
<g clip-path="url(#clip2_73_527)">
<path d="M14.2674 0.140015C6.60187 0.140015 0.389648 6.40081 0.389648 14.1243C0.389648 21.8456 6.60298 28.1064 14.2674 28.1064C21.9307 28.1064 28.144 21.8456 28.144 14.1232C28.144 6.40081 21.9318 0.140015 14.2674 0.140015ZM14.2674 3.63553C18.7829 3.63553 22.5985 6.56658 24.0374 10.6277H4.49632C5.93521 6.56658 9.75298 3.63553 14.2674 3.63553ZM14.2674 15.8715C14.0396 15.8715 13.8141 15.8263 13.6036 15.7384C13.3932 15.6506 13.202 15.5218 13.0409 15.3594C12.8799 15.1971 12.7521 15.0044 12.665 14.7923C12.5778 14.5801 12.5329 14.3528 12.5329 14.1232C12.5329 13.8936 12.5778 13.6663 12.665 13.4541C12.7521 13.242 12.8799 13.0493 13.0409 12.887C13.202 12.7246 13.3932 12.5958 13.6036 12.508C13.8141 12.4201 14.0396 12.3749 14.2674 12.3749C14.7274 12.3749 15.1685 12.5591 15.4938 12.887C15.8191 13.2148 16.0018 13.6595 16.0018 14.1232C16.0018 14.5869 15.8191 15.0316 15.4938 15.3594C15.1685 15.6873 14.7274 15.8715 14.2674 15.8715ZM3.85854 14.1243C8.59854 14.1243 12.4363 18.7253 12.5185 24.4339C7.61298 23.5872 3.85854 19.3032 3.85854 14.1243ZM16.014 24.4339C16.0963 18.7264 19.9352 14.1243 24.6752 14.1243C24.6752 19.3032 20.9196 23.5883 16.014 24.4339ZM37.284 19.18C36.513 19.18 35.8363 19.0534 35.254 18.7992C34.6632 18.527 34.1401 18.1252 33.7229 17.6232L35.0407 16.4293C35.3374 16.8157 35.6696 17.1091 36.0385 17.3074C36.4052 17.5067 36.833 17.6064 37.3196 17.6064C38.2229 17.6064 38.6729 17.2525 38.6729 16.5458C38.6729 16.2691 38.5963 16.0541 38.4418 15.8995C38.2996 15.7338 38.0508 15.624 37.694 15.568L36.8218 15.419C35.8475 15.2533 35.1418 14.971 34.7018 14.5746C34.2629 14.177 34.0429 13.5968 34.0429 12.8341C34.0429 11.9291 34.3285 11.2549 34.8985 10.8136C35.4685 10.36 36.2763 10.1338 37.3207 10.1338C38.044 10.1338 38.6674 10.2446 39.1896 10.4653C39.724 10.6859 40.1874 11.0118 40.5785 11.443L39.314 12.619C39.0723 12.3393 38.7752 12.1135 38.4418 11.956C38.092 11.7863 37.7078 11.7012 37.3196 11.7074C36.4885 11.7074 36.0729 12.0557 36.0729 12.7512C36.0729 13.039 36.1563 13.2597 36.3229 13.4142C36.4896 13.5576 36.7508 13.6573 37.1063 13.7122L37.9963 13.8611C38.9707 14.0269 39.6652 14.3091 40.0807 14.7067C40.5075 15.0931 40.7218 15.6397 40.7218 16.3464C40.7218 17.2424 40.424 17.9368 39.8307 18.4341C39.2374 18.9314 38.3885 19.18 37.284 19.18ZM42.4707 18.9818V10.332H44.6252V11.7734H44.8741C45.243 10.6792 45.9729 10.1327 47.0652 10.1327C48.2285 10.1327 48.9818 10.7016 49.3263 11.8395H49.5396C49.7419 11.2538 50.0507 10.8226 50.4663 10.547C50.8929 10.2704 51.4107 10.1327 52.0152 10.1327C52.7985 10.1327 53.4096 10.3981 53.8485 10.9278C54.2885 11.4475 54.5085 12.1934 54.5085 13.1645V18.9806H52.3529V13.5128C52.3529 12.3861 51.9196 11.8227 51.0529 11.8227C50.6385 11.8227 50.2818 11.9437 49.9852 12.1867C49.7007 12.4186 49.5574 12.7501 49.5574 13.1813V18.9806H47.403V13.5128C47.403 12.9158 47.2963 12.4858 47.0829 12.2203C46.8685 11.9549 46.5485 11.8227 46.1207 11.8227C45.7052 11.8227 45.3496 11.9437 45.0529 12.1867C44.7674 12.4186 44.6252 12.7501 44.6252 13.1813V18.9806H42.4697L42.4707 18.9818ZM62.8029 18.9818C61.8407 18.9818 61.3363 18.489 61.2885 17.5067H61.0752C60.975 18.0089 60.6884 18.4535 60.274 18.7499C59.8585 19.0366 59.3419 19.18 58.724 19.18C57.8696 19.18 57.2285 18.9594 56.8018 18.517C56.3741 18.0757 56.1596 17.4563 56.1596 16.6611C56.1596 15.7562 56.463 15.0819 57.0686 14.6406C57.674 14.1982 58.5463 13.9776 59.6863 13.9776H61.1285V13.2317C61.1285 12.7243 61.0096 12.348 60.7729 12.105C60.5463 11.863 60.1674 11.741 59.6329 11.741C59.193 11.741 58.8252 11.8406 58.5285 12.0389C58.2318 12.227 57.9707 12.4981 57.7452 12.8509L56.4807 11.7902C56.8252 11.2941 57.2585 10.8965 57.7808 10.5974C58.314 10.2883 58.9918 10.1338 59.8107 10.1338C62.1264 10.1338 63.2829 11.1496 63.2829 13.1824V17.3746H64.1029V18.9818H62.8029ZM59.544 17.705C59.9829 17.705 60.3574 17.5896 60.6663 17.3578C60.974 17.1147 61.1285 16.7832 61.1285 16.3632V15.2208H59.8285C58.8307 15.2208 58.3329 15.5792 58.3329 16.2971V16.6611C58.3329 17.0262 58.4397 17.2917 58.653 17.4563C58.8675 17.6232 59.164 17.705 59.544 17.705ZM65.7729 18.9818V10.332H67.9286V12.1038H68.1775C68.284 11.5304 68.5041 11.0936 68.8363 10.7957C69.1807 10.4866 69.6253 10.332 70.1719 10.332H70.6352V12.3861H69.923C69.2453 12.3861 68.7418 12.4858 68.4085 12.684C68.0885 12.8834 67.9286 13.2306 67.9286 13.7278V18.9806L65.7729 18.9818ZM74.9286 18.9818C74.1807 18.9818 73.6396 18.8261 73.3085 18.517C72.9753 18.2078 72.8085 17.7162 72.8085 17.043V11.9403H71.5807V10.332H72.2218C72.5307 10.332 72.7385 10.2648 72.844 10.1327C72.9641 10.0005 73.0229 9.78994 73.0229 9.50321V7.98001H74.9641V10.332H76.6385V11.9403H74.9641V17.3746H76.4952V18.9818H74.9286ZM81.5363 19.18C80.2785 19.18 79.3163 18.816 78.6518 18.0869C77.9986 17.3578 77.6719 16.2142 77.6719 14.6563C77.6719 13.0995 77.9986 11.9571 78.6518 11.2269C79.3163 10.4989 80.2785 10.1338 81.5363 10.1338C82.4507 10.1338 83.1752 10.3275 83.7096 10.7139C84.2587 11.105 84.6701 11.662 84.884 12.3043L83.1218 13.0323C83.0264 12.6134 82.8552 12.2987 82.6052 12.0893C82.3674 11.8675 82.0118 11.7578 81.5363 11.7578C80.4685 11.7578 79.9341 12.3536 79.9341 13.5464V15.7674C79.9341 16.9602 80.4674 17.556 81.5363 17.556C82.0352 17.556 82.4152 17.4462 82.6763 17.2245C82.9374 17.0038 83.1329 16.6622 83.264 16.1974L84.9374 16.9434C84.3918 18.4341 83.2574 19.18 81.5363 19.18ZM92.5564 18.9818C91.5953 18.9818 91.0907 18.489 91.0429 17.5067H90.8297C90.7293 18.0088 90.4428 18.4534 90.0285 18.7499C89.6129 19.0366 89.0963 19.18 88.4796 19.18C87.624 19.18 86.9829 18.9594 86.5564 18.517C86.1285 18.0757 85.9152 17.4563 85.9152 16.6611C85.9152 15.7562 86.2174 15.0819 86.8229 14.6406C87.4285 14.1982 88.3008 13.9776 89.4408 13.9776H90.8829V13.2317C90.8829 12.7243 90.7641 12.348 90.5275 12.105C90.3018 11.863 89.9219 11.741 89.3875 11.741C88.9485 11.741 88.5797 11.8406 88.283 12.0389C87.9864 12.227 87.7253 12.4981 87.4996 12.8509L86.2352 11.7902C86.5796 11.2941 87.0129 10.8965 87.5352 10.5974C88.0696 10.2883 88.7463 10.1338 89.5652 10.1338C91.8807 10.1338 93.0386 11.1496 93.0386 13.1824V17.3746H93.8574V18.9818H92.5564ZM89.2985 17.705C89.7374 17.705 90.1118 17.5896 90.4207 17.3578C90.7285 17.1147 90.8829 16.7832 90.8829 16.3632V15.2208H89.5829C88.5863 15.2208 88.0874 15.5792 88.0874 16.2971V16.6611C88.0874 17.0262 88.1941 17.2917 88.4074 17.4563C88.6218 17.6232 88.9185 17.705 89.2985 17.705ZM95.5285 18.9818V10.332H97.6829V12.1038H97.9318C98.0396 11.5304 98.2586 11.0936 98.5908 10.7957C98.9352 10.4866 99.3796 10.332 99.9263 10.332H100.39V12.3861H99.6775C98.9996 12.3861 98.4963 12.4858 98.1641 12.684C97.8429 12.8834 97.6829 13.2306 97.6829 13.7278V18.9806H95.5275L95.5285 18.9818Z" fill="#36364A"/>
</g>
</g>
</g>
<defs>
<clipPath id="clip0_73_527">
<rect width="100" height="28" fill="white" transform="translate(0.389648 0.140015)"/>
</clipPath>
<clipPath id="clip1_73_527">
<rect width="100" height="28" fill="white" transform="translate(0.389648 0.140015)"/>
</clipPath>
<clipPath id="clip2_73_527">
<rect width="100" height="28" fill="white" transform="translate(0.389648 0.140015)"/>
</clipPath>
</defs>
</svg>
