<svg width="65" height="23" viewBox="0 0 65 23" fill="none" xmlns="http://www.w3.org/2000/svg">
<g clip-path="url(#clip0_73_455)">
<g clip-path="url(#clip1_73_455)">
<path fill-rule="evenodd" clip-rule="evenodd" d="M45.1297 17.637C43.1329 17.637 41.6354 16.2087 41.6354 13.9234C41.6354 11.6381 43.1329 10.2098 45.1297 10.2098C47.1978 10.2098 48.624 11.6381 48.624 13.9234C48.624 16.2087 47.1978 17.637 45.1297 17.637ZM52.0471 17.0657V14.4947V1.14001H48.6953V8.92429C47.7683 7.71024 46.1281 7.21033 44.6305 7.21033C40.9222 7.21033 38.141 9.85271 38.141 13.9948C38.141 18.4226 40.8509 20.7079 44.5592 20.7079C46.2707 20.7079 47.9109 19.9937 48.7666 18.7797C48.7869 18.9627 48.8015 19.1341 48.8152 19.2957C48.8495 19.7012 48.8786 20.0443 48.9806 20.3508H52.0471V17.0657ZM17.1038 7.56736V3.63951H20.3842V7.56736H22.8088V10.3526H20.3842V20.3508H17.1038V10.3526V7.56736ZM12.0405 16.7086C12.0405 17.6369 11.1847 17.994 10.1863 17.994C8.974 17.994 8.18956 17.4227 8.04693 16.4943L4.98047 16.9942C5.26572 19.0652 6.97724 20.6363 10.1863 20.6363C13.4667 20.6363 15.3209 19.0652 15.3209 16.7086C15.3209 14.8517 14.1086 13.5663 11.7552 12.9235L10.115 12.495C9.11662 12.2094 8.68875 11.8523 8.68875 11.2095C8.68875 10.4239 9.33056 9.92408 10.3289 9.92408C11.256 9.92408 12.0405 10.4239 12.1118 11.281L15.107 10.5668C14.7504 8.42436 12.7536 7.21027 10.2576 7.21027C7.11986 7.21027 5.40835 8.99567 5.40835 11.281C5.40835 12.9949 6.40673 14.3518 9.11662 15.066L10.8281 15.4945C11.6126 15.7087 12.0405 16.0658 12.0405 16.7086ZM26.9449 12.8521H33.0779C32.9352 10.9239 31.7942 9.99553 30.1541 9.99553C28.3712 9.99553 27.3015 10.9953 26.9449 12.8521ZM36.5009 15.1375H26.9449C27.1589 17.0657 28.6565 17.7798 30.1541 17.7798C31.723 17.7798 32.65 17.0657 33.2205 15.923L36.0017 16.9942C35.0746 19.2081 32.7926 20.565 30.1541 20.565C26.3745 20.565 23.7359 17.9226 23.7359 13.8519C23.7359 9.85271 26.3032 7.06749 30.1541 7.06749C33.9337 7.06749 36.5009 9.70988 36.5009 13.8519V15.1375ZM54.7568 7.56739H58.1086V20.2793H54.7568V7.56739ZM58.0897 4.49753L58.0994 1.141L61.4511 1.15074L61.4414 4.50727L58.0897 4.49753Z" fill="#36364A"/>
</g>
</g>
<defs>
<clipPath id="clip0_73_455">
<rect width="64" height="22" fill="white" transform="translate(0.980469 0.140015)"/>
</clipPath>
<clipPath id="clip1_73_455">
<rect width="64" height="22" fill="white" transform="translate(0.980469 0.140015)"/>
</clipPath>
</defs>
</svg>
