<svg width="106" height="23" viewBox="0 0 106 23" fill="none" xmlns="http://www.w3.org/2000/svg">
<g clip-path="url(#clip0_73_433)">
<g clip-path="url(#clip1_73_433)">
<g clip-path="url(#clip2_73_433)">
<path fill-rule="evenodd" clip-rule="evenodd" d="M12.8888 0.349951C12.9701 0.362381 13.0465 0.396708 13.1097 0.449217C13.1729 0.501726 13.2204 0.570419 13.2471 0.647867L13.2628 0.7047L13.8008 3.45286C14.5204 3.72754 15.1988 4.09887 15.8173 4.55653L16.043 4.7307L18.7596 3.80761C18.9346 3.73245 19.1216 3.78653 19.2534 3.93595C20.1875 4.9782 20.9465 6.23586 21.3869 7.55678C21.42 7.63042 21.4297 7.71237 21.4147 7.79166C21.3997 7.87095 21.3608 7.94379 21.303 8.00044L21.2551 8.03986L19.0995 9.86403C19.1769 10.2719 19.199 10.7129 19.199 11.1419C19.199 11.4874 19.1843 11.8376 19.1391 12.1722L19.0995 12.4206L21.2551 14.2466C21.3299 14.2995 21.3839 14.3766 21.4079 14.4647C21.432 14.5528 21.4245 14.6464 21.3869 14.7297C20.9474 16.0515 20.1893 17.3074 19.2543 18.3487C19.1364 18.4825 18.9761 18.5403 18.8186 18.4981L18.7596 18.4779L16.0439 17.5539C15.4479 18.0315 14.7819 18.4248 14.0707 18.7236L13.8017 18.8318L13.2628 21.5818C13.2442 21.6718 13.1984 21.754 13.1316 21.8174C13.0647 21.8808 12.98 21.9223 12.8888 21.9365C12.185 22.0649 11.4812 22.14 10.7562 22.14C10.0304 22.14 9.32656 22.0649 8.62276 21.9365C8.54132 21.924 8.46483 21.8897 8.40153 21.8372C8.33823 21.7847 8.2905 21.7161 8.26349 21.6386L8.24875 21.5818L7.71077 18.8318C6.97877 18.558 6.29006 18.1811 5.66571 17.7125L5.46765 17.5539L2.75196 18.4779C2.57693 18.5531 2.38992 18.499 2.25727 18.3487C1.32225 17.3074 0.56411 16.0515 0.124698 14.7297C0.0917198 14.656 0.0820767 14.5741 0.0970524 14.4948C0.112028 14.4156 0.150912 14.3427 0.208527 14.286L0.25643 14.2466L2.41111 12.4206C2.33888 11.9983 2.30558 11.5702 2.31162 11.1419C2.31162 10.799 2.32544 10.4479 2.37058 10.1124L2.41111 9.86494L0.255508 8.03986C0.180729 7.98698 0.126716 7.9099 0.102691 7.8218C0.0786664 7.73369 0.0861189 7.64002 0.123777 7.55678C0.563189 6.23586 1.32133 4.9782 2.25635 3.93595C2.3073 3.87256 2.37534 3.82492 2.45251 3.79862C2.52967 3.77232 2.61277 3.76845 2.69208 3.78745L2.75196 3.8067L5.46765 4.72978C6.0718 4.24024 6.74543 3.84237 7.46665 3.54911L7.71077 3.45195L8.24875 0.703784C8.26711 0.613669 8.31282 0.531331 8.3797 0.467891C8.44659 0.40445 8.53142 0.362964 8.62276 0.349034C10.0306 0.0693651 11.48 0.0693651 12.8879 0.349034L12.8888 0.349951ZM73.1389 7.71903C73.6824 7.71903 74.1845 7.83636 74.646 8.07194C75.1183 8.31613 75.5275 8.66562 75.8417 9.09311C76.177 9.53862 76.4396 10.0831 76.6303 10.7275C76.821 11.3729 76.9158 12.1034 76.9158 12.922C76.9158 13.6874 76.8081 14.3942 76.5897 15.0423C76.3909 15.6557 76.0812 16.2279 75.6759 16.7308C75.2939 17.2004 74.8139 17.582 74.2692 17.8491C73.7047 18.122 73.0839 18.2601 72.4563 18.2524C71.9128 18.2524 71.4577 18.1773 71.0902 18.0269C70.7248 17.8784 70.3856 17.6729 70.0852 17.4183V21.3251H66.9715V7.91428H68.8996L68.9945 7.91886C69.1337 7.92627 69.2688 7.96886 69.3869 8.04261C69.5219 8.13356 69.6198 8.26943 69.6632 8.42579L69.8935 9.17194L70.0474 9.01336C70.204 8.85845 70.3698 8.71544 70.5421 8.58253C71.2847 8.01013 72.1996 7.70567 73.1389 7.71903ZM45.7379 8.07194C45.1304 7.85691 44.4895 7.75077 43.8448 7.75844C43.047 7.75844 42.3322 7.89228 41.6993 8.16086C41.0919 8.41175 40.5417 8.78216 40.0817 9.24986C39.6355 9.70939 39.2871 10.2537 39.0573 10.8504C38.818 11.4672 38.6971 12.1233 38.7008 12.7845C38.7008 13.6874 38.839 14.4794 39.1181 15.1596C39.3954 15.8407 39.774 16.4099 40.253 16.8683C40.7321 17.3266 41.2912 17.6713 41.9305 17.9041C42.5698 18.136 43.2552 18.2524 43.9848 18.2524C44.3404 18.2524 44.7126 18.2277 45.105 18.1791C45.4965 18.1296 45.888 18.0416 46.2804 17.9133C46.6719 17.7859 47.0542 17.6099 47.4255 17.3834C47.7442 17.1909 48.0445 16.9471 48.3264 16.6556L48.4655 16.5053L47.5618 15.4154C47.4338 15.2384 47.2468 15.1495 46.999 15.1495C46.811 15.1495 46.6323 15.1926 46.4619 15.2779C46.2906 15.3631 46.1026 15.4575 45.8991 15.562C45.6743 15.6753 45.4408 15.7706 45.2008 15.8471C44.9392 15.9324 44.6278 15.9754 44.2667 15.9754C43.5896 15.9754 43.0369 15.7829 42.6085 15.4007C42.2087 15.0432 41.9517 14.4822 41.8375 13.7168L41.8154 13.5499H47.8225C47.9635 13.5499 48.0786 13.5334 48.1689 13.5014C48.2593 13.4688 48.3357 13.4064 48.3854 13.3244C48.4458 13.2187 48.4835 13.1017 48.4959 12.9807C48.5162 12.8368 48.5263 12.6507 48.5263 12.4215C48.5263 11.6882 48.4103 11.0319 48.179 10.4525C47.9659 9.90102 47.6371 9.40104 47.2145 8.98586C46.7931 8.58031 46.2897 8.26876 45.7379 8.07194ZM60.501 7.75844C61.146 7.75066 61.7873 7.85681 62.395 8.07194C62.9468 8.26849 63.4502 8.57973 63.8717 8.98494C64.2834 9.38461 64.6049 9.87411 64.8362 10.4525C65.0665 11.0319 65.1825 11.6882 65.1825 12.4215C65.1825 12.6507 65.1733 12.8368 65.1521 12.9807C65.1397 13.1017 65.1021 13.2187 65.0416 13.3244C64.9922 13.4063 64.9161 13.4687 64.826 13.5014C64.7142 13.5371 64.5971 13.5535 64.4797 13.5499H58.4716L58.4937 13.7168C58.6079 14.4822 58.8649 15.0432 59.2657 15.4007C59.694 15.7839 60.2467 15.9745 60.9238 15.9745C61.2849 15.9745 61.5963 15.9324 61.857 15.8471C62.097 15.7709 62.3304 15.6759 62.5553 15.5629C62.7598 15.4575 62.9477 15.3631 63.1181 15.2788C63.2885 15.1926 63.4682 15.1504 63.6552 15.1504C63.9039 15.1504 64.0909 15.2384 64.218 15.4154L65.1227 16.5053L64.9826 16.6556C64.7154 16.9358 64.4129 17.1805 64.0826 17.3834C63.7105 17.6099 63.3291 17.7868 62.9376 17.9142C62.5552 18.0397 62.1615 18.1284 61.7621 18.1791C61.3697 18.2277 60.9975 18.2524 60.6419 18.2524C59.9419 18.2576 59.2465 18.1397 58.5877 17.9041C57.9612 17.6801 57.3893 17.3272 56.9092 16.8683C56.4302 16.4099 56.0525 15.8416 55.7743 15.1605C55.4961 14.4794 55.357 13.6874 55.357 12.7845C55.357 12.1034 55.4768 11.459 55.7144 10.8504C55.9443 10.2537 56.2927 9.70939 56.7388 9.24986C57.1985 8.78226 57.7484 8.41185 58.3555 8.16086C58.9884 7.89228 59.7032 7.75753 60.5001 7.75753L60.501 7.75844ZM85.3854 8.12144C84.7359 7.87944 84.0165 7.75844 83.2261 7.75844C82.4283 7.75844 81.7033 7.87944 81.0502 8.12144C80.4215 8.34857 79.8469 8.70281 79.3626 9.16186C78.8828 9.62508 78.5095 10.1861 78.2682 10.8064C78.0102 11.4508 77.8813 12.1759 77.8813 12.9807C77.8813 13.7919 78.0102 14.5234 78.2682 15.1752C78.5261 15.826 78.8909 16.3788 79.3626 16.8344C79.8464 17.2962 80.4211 17.6535 81.0502 17.8839C81.7042 18.1296 82.4283 18.2524 83.2261 18.2524C84.0165 18.2524 84.7368 18.1296 85.3854 17.8839C86.0105 17.6542 86.5804 17.2966 87.0583 16.8344C87.5235 16.3788 87.8855 15.826 88.1434 15.1752C88.4014 14.5244 88.5303 13.7919 88.5303 12.9807C88.5303 12.1759 88.4014 11.4508 88.1434 10.8064C87.9029 10.1879 87.533 9.62732 87.0583 9.16186C86.58 8.70235 86.01 8.34791 85.3854 8.12144ZM102.254 4.95986V7.93445H104.785V10.0153H102.254V15.0716L102.257 15.1706C102.271 15.3622 102.329 15.5244 102.43 15.6564C102.547 15.8095 102.715 15.8865 102.936 15.8865C103.106 15.8902 103.273 15.8514 103.424 15.7738C103.481 15.7444 103.534 15.7188 103.585 15.6949C103.64 15.6711 103.7 15.6595 103.761 15.661C103.841 15.6574 103.92 15.6799 103.986 15.7252C104.044 15.7674 104.102 15.8343 104.162 15.9259L105.107 17.3688L104.954 17.476C104.583 17.721 104.178 17.9084 103.751 18.0315C103.248 18.1782 102.729 18.2524 102.193 18.2524C101.697 18.2524 101.261 18.1819 100.882 18.0416C100.524 17.9135 100.198 17.7088 99.9274 17.4421C99.6651 17.1763 99.4645 16.8565 99.3397 16.5053C99.2013 16.1109 99.1333 15.6955 99.1389 15.2779V10.0162H98.2545L98.1762 10.0116C98.0521 9.999 97.9353 9.9473 97.8427 9.86403C97.7294 9.7632 97.6723 9.61378 97.6723 9.41669V8.22961L99.3295 7.9152L99.9431 5.43103L99.9661 5.35586C100.062 5.09186 100.282 4.95986 100.626 4.95986H102.254ZM37.9777 6.42286V3.79203H26.3438V6.42286H30.4625V18.0957H33.8581V6.42286H37.9777ZM53.5284 3.3997V18.0957H50.4148V3.3997H53.5284ZM97.1491 8.05269C96.8607 7.82994 96.4794 7.71903 96.004 7.71903C95.4412 7.71903 94.9216 7.88586 94.4463 8.21953C93.9964 8.54383 93.6051 8.94182 93.2892 9.39653L93.1603 9.58353L92.9899 8.63203C92.9679 8.5182 92.9359 8.40653 92.894 8.29836C92.861 8.21199 92.8058 8.1358 92.7338 8.07745C92.6563 8.01852 92.5671 7.97665 92.4721 7.95461C92.3815 7.93321 92.2889 7.92093 92.1958 7.91794L92.0852 7.9152H90.2382V18.0957H93.3519V11.8514C93.8208 11.0007 94.4638 10.5754 95.2809 10.5754C95.5158 10.5754 95.7102 10.59 95.864 10.6194C96.0178 10.6487 96.1514 10.6643 96.2656 10.6643C96.3992 10.6643 96.507 10.6368 96.5871 10.5809C96.6572 10.528 96.7073 10.453 96.729 10.3682L96.7484 10.2912L97.1491 8.05269ZM10.7553 4.7032C7.17371 4.7032 4.27378 7.58519 4.27378 11.14C4.27378 14.6949 7.17556 17.5769 10.7553 17.5769C14.3351 17.5769 17.2369 14.6949 17.2369 11.14C17.2369 7.58519 14.336 4.7032 10.7553 4.7032ZM71.4365 10.1097C71.6208 10.0666 71.8262 10.0455 72.0538 10.0455C72.3025 10.0455 72.5263 10.0941 72.7272 10.1922C72.928 10.2912 73.1012 10.4525 73.2449 10.678C73.3886 10.9044 73.501 11.2005 73.5811 11.5672C73.6612 11.9339 73.7018 12.3849 73.7018 12.922C73.7018 13.4849 73.6511 13.9624 73.5516 14.3548C73.4503 14.748 73.3121 15.067 73.1343 15.3127C72.9565 15.5574 72.7474 15.7362 72.5061 15.8471C72.2572 15.96 71.9864 16.0169 71.7129 16.0139C71.4117 16.0139 71.1233 15.9635 70.8488 15.8618C70.6 15.7662 70.3743 15.6194 70.1865 15.4309L70.0852 15.3274V11.0071C70.2098 10.8596 70.344 10.7203 70.4868 10.59C70.6182 10.471 70.7655 10.3704 70.9244 10.2912C71.081 10.2124 71.2523 10.1519 71.4365 10.1097ZM83.2261 10.0162C82.4891 10.0162 81.9502 10.2619 81.6084 10.7523C81.2667 11.2427 81.0962 11.9925 81.0962 13.0009C81.0962 14.0083 81.2667 14.759 81.6084 15.2531C81.9493 15.7481 82.4891 15.9947 83.2261 15.9947C83.9418 15.9947 84.4697 15.7472 84.8078 15.2531C85.1458 14.759 85.3144 14.0083 85.3144 13.0009C85.3144 11.9925 85.1458 11.2427 84.8078 10.7523C84.4697 10.2609 83.9418 10.0162 83.2261 10.0162ZM14.8574 10.2454V8.32953H6.65324V10.2454H9.77887V14.847H11.7318V10.2454H14.8574ZM43.9047 9.85853C43.3086 9.85853 42.8434 10.0235 42.5081 10.3544C42.1737 10.6844 41.9526 11.1611 41.8449 11.7826H45.7323C45.7329 11.5441 45.701 11.3067 45.6374 11.0768C45.5768 10.8531 45.4708 10.6441 45.3261 10.4626C45.173 10.2758 44.9789 10.1265 44.7586 10.0263C44.5237 9.91444 44.2391 9.85853 43.9047 9.85853ZM59.1653 10.3544C59.4996 10.0244 59.9649 9.85944 60.5609 9.85944C60.8962 9.85944 61.1808 9.91445 61.4148 10.0254C61.6497 10.1372 61.8386 10.282 61.9832 10.4626C62.1269 10.6423 62.231 10.8476 62.2946 11.0768C62.3581 11.3059 62.3894 11.5406 62.3894 11.7826H58.502C58.6089 11.1611 58.8299 10.6854 59.1653 10.3544Z" fill="#36364A"/>
</g>
</g>
</g>
<defs>
<clipPath id="clip0_73_433">
<rect width="105" height="22" fill="white" transform="translate(0.0898438 0.140015)"/>
</clipPath>
<clipPath id="clip1_73_433">
<rect width="105" height="22" fill="white" transform="translate(0.0898438 0.140015)"/>
</clipPath>
<clipPath id="clip2_73_433">
<rect width="105" height="22" fill="white" transform="translate(0.0898438 0.140015)"/>
</clipPath>
</defs>
</svg>
