<svg width="108" height="23" viewBox="0 0 108 23" fill="none" xmlns="http://www.w3.org/2000/svg">
<g clip-path="url(#clip0_73_518)">
<g clip-path="url(#clip1_73_518)">
<g clip-path="url(#clip2_73_518)">
<path d="M54.7651 17.821H57.7753L61.1864 8.63806H61.2242L64.616 17.821H67.6649L71.0185 4.48475H68.0461L65.7783 13.7058H65.7405L62.5008 4.48475H59.9288L56.6896 13.7058H56.6513L54.4029 4.48475H51.4111L54.7651 17.821Z" fill="#36364A"/>
<path d="M71.873 17.8211H74.6929V12.4294C74.6929 10.9624 75.7986 9.95264 77.4369 9.95264C79.0756 9.95264 80.0663 10.8862 80.0663 12.4294V17.8211H82.8867V12.0483C82.8867 9.32397 80.9428 7.43781 78.0465 7.43781C76.7128 7.43781 75.5694 7.87601 74.7312 8.67619H74.6929V3.9132H71.873V17.8211Z" fill="#36364A"/>
<path d="M89.591 18.1067C92.9251 18.1067 95.2878 15.7824 95.2878 12.7721C95.2878 9.76197 92.9251 7.43762 89.591 7.43762C86.2752 7.43762 83.8936 9.76197 83.8936 12.7721C83.8936 15.7824 86.2752 18.1067 89.591 18.1067ZM89.591 15.6299C87.8379 15.6299 86.7135 14.4106 86.7135 12.7721C86.7135 11.1337 87.8379 9.91435 89.591 9.91435C91.344 9.91435 92.4679 11.1337 92.4679 12.7721C92.4679 14.4106 91.344 15.6299 89.591 15.6299Z" fill="#36364A"/>
<path d="M96.3408 22.1076H99.1607V17.0398H99.1989C99.8469 17.6685 101.105 18.1067 102.362 18.1067C105.354 18.1067 107.583 15.8204 107.583 12.7721C107.583 9.74289 105.335 7.43762 102.343 7.43762C101.047 7.43762 99.8658 7.81864 99.0846 8.61882H99.0464V7.72339H96.3408V22.1076ZM101.924 15.6299C100.361 15.6299 99.1607 14.6202 99.1607 13.4009V12.1244C99.1607 10.9432 100.418 9.93343 101.905 9.93343C103.601 9.93343 104.763 11.0765 104.763 12.7721C104.763 14.4678 103.582 15.6299 101.924 15.6299Z" fill="#36364A"/>
<path fill-rule="evenodd" clip-rule="evenodd" d="M45.8227 3.56868C42.0131 -0.227761 35.8518 -0.222921 32.048 3.5832L16.6434 18.9295C20.822 22.5895 27.1527 22.4413 31.09 18.5015L45.9118 3.67044L45.8227 3.56868ZM16.1821 3.65317C19.9907 -0.1578 26.1629 -0.1578 29.9714 3.65317L30.0872 3.76899L15.8079 18.0572L8.79753 11.0424L16.1821 3.65317ZM7.91043 10.1584L0.916016 3.22162C4.74638 -0.151918 10.5868 -0.00806904 14.2457 3.65317L14.3594 3.76687L7.91043 10.1584Z" fill="#36364A"/>
</g>
</g>
</g>
<defs>
<clipPath id="clip0_73_518">
<rect width="107" height="22" fill="white" transform="translate(0.69043 0.140015)"/>
</clipPath>
<clipPath id="clip1_73_518">
<rect width="107" height="22" fill="white" transform="translate(0.69043 0.140015)"/>
</clipPath>
<clipPath id="clip2_73_518">
<rect width="107" height="22" fill="white" transform="translate(0.69043 0.140015)"/>
</clipPath>
</defs>
</svg>
